<svg xmlns="http://www.w3.org/2000/svg" viewBox="0 0 500 500"><g id="freepik--background-complete--inject-23"><path d="M37.27,179.71c-.55,0-.6-1.09,0-1.17,2.59-.33,5.18-2.65,7.77-3a23.14,23.14,0,0,0,7.43-1.77c3.85-1.94,6.25-5.81,10.24-7.66,7-3.26,14.2-1.87,21,1A24,24,0,0,0,96.62,169c4-.51,7.85-1.6,11.81-2.17a23.44,23.44,0,0,1,10.6.51c3.56,1.15,6.61,3.37,10,5,4.4,2.12,8.76,1.76,13.5,1.9,3.42.1,10.57,2.26,10.57,4.56C153.06,180.37,44.05,179.71,37.27,179.71Z" style="fill:#ebebeb"></path><path d="M446.45,185.7c-4.77,0-123.92-.83-157.58-.83-2.35,0,.62-4.07,1.92-4.36,4.14-.9,8.45-.95,12.66-1.38a41.26,41.26,0,0,0,12.06-3c3.31-1.39,6.61-3,10.2-3.57,6.93-1.09,13,2.67,19.52,4.33a14.7,14.7,0,0,0,11.82-1.62c3-1.8,5.74-4,8.88-5.55a48.75,48.75,0,0,1,38.94-1.79,45.34,45.34,0,0,1,8.52,4.36c3.17,2.08,5.91,4.75,9.1,6.81,7.05,4.57,15.78,3.08,23.48,5.7C446.39,184.91,446.87,185.7,446.45,185.7Z" style="fill:#ebebeb"></path><path d="M180,97.54c-6.32,0-112.55.7-119.22.49-.48,0-.74-.72-.26-1,4.2-2.08,9-1.67,13.35-3.14,2.57-.87,4.15-2.55,5.94-4.48a12.28,12.28,0,0,1,5.53-3.61,11.71,11.71,0,0,1,6-.19c2.15.52,4,1.75,6.08,2.53,5.1,1.93,10.06.1,13.71-3.68,3-3.11,6-6,10-7.73a13.35,13.35,0,0,1,10.64-.14c3.9,1.76,6.57,5.31,10.23,7.45,4.34,2.53,9.53,1.93,14.32,2.7s8.47,4.8,12.68,7.12a8.91,8.91,0,0,0,4.58,1.42c.94,0,1.86-.28,2.79-.39,1.44-.18,2.82-.14,3.79,1.07C180.43,96.29,180.38,97.54,180,97.54Z" style="fill:#ebebeb"></path><path d="M318.34,152.48c-4.6,0-82.16.51-87,.36-.35,0-.54-.53-.19-.7,3.07-1.52,6.56-1.22,9.75-2.29a10.31,10.31,0,0,0,4.34-3.27,9.05,9.05,0,0,1,4-2.64,8.49,8.49,0,0,1,4.39-.13,36.43,36.43,0,0,1,4.44,1.84c3.73,1.41,7.35.07,10-2.69,2.19-2.27,4.35-4.41,7.33-5.64a9.72,9.72,0,0,1,7.77-.1c2.85,1.28,4.8,3.88,7.47,5.43,3.17,1.86,7,1.42,10.45,2s6.19,3.5,9.26,5.2a6.55,6.55,0,0,0,3.34,1,20,20,0,0,0,2-.28,2.79,2.79,0,0,1,2.77.78C318.68,151.57,318.65,152.48,318.34,152.48Z" style="fill:#ebebeb"></path><path d="M461.62,86.83H329.93c-.53,0-.73-.57-.19-.82,4.71-2.21,10-1.64,14.88-3.17,2.87-.91,4.67-2.74,6.69-4.83a13.61,13.61,0,0,1,6.21-3.88,12.93,12.93,0,0,1,6.68-.07c2.38.62,4.43,2,6.69,2.94,5.61,2.25,11.16.34,15.28-3.77,3.41-3.38,6.75-6.57,11.32-8.33A14.79,14.79,0,0,1,409.3,65c4.28,2,7.16,6,11.17,8.5,4.75,2.91,10.52,2.37,15.82,3.32s9.71,3.25,14.32,5.92a9.84,9.84,0,0,0,5,1.68,29.63,29.63,0,0,0,3.11-.37c1.6-.16,3.13-.09,4.18,1.27C463.2,85.64,464.72,86.83,461.62,86.83Z" style="fill:#ebebeb"></path><path d="M96.81,314.38a34.69,34.69,0,0,0,4.54.64l4.57.39,9.15.64,18.32,1.18L170,319.61c12.21.9,24.42,1.75,36.6,3,3.05.33,6.09.66,9.13,1.13a29.15,29.15,0,0,1,4.51,1,17.64,17.64,0,0,1,4.28,1.81,4.09,4.09,0,0,1,1.63,1.76,2.08,2.08,0,0,1,0,1.26,3.12,3.12,0,0,1-.58,1.06,12,12,0,0,1-3.75,2.72,61,61,0,0,1-8.52,3.44,66,66,0,0,0,8.39-3.67,12.09,12.09,0,0,0,3.58-2.72,2.92,2.92,0,0,0,.49-.94,1.59,1.59,0,0,0-.06-1,3.53,3.53,0,0,0-1.49-1.5,17.73,17.73,0,0,0-4.17-1.7,30.31,30.31,0,0,0-4.45-.93c-3-.43-6.06-.71-9.1-1-12.18-1.08-24.39-1.93-36.6-2.76L133.34,318,115,316.54l-9.14-.87c-1.53-.16-3.05-.32-4.57-.51A33.11,33.11,0,0,1,96.81,314.38Z" style="fill:#ebebeb"></path><path d="M288.47,314.48a42.57,42.57,0,0,0,5.75.82c1.93.17,3.86.3,5.79.41,3.87.22,7.75.37,11.62.5,7.75.29,15.5.48,23.25.69s15.51.46,23.26.84c3.88.21,7.75.4,11.63.87a21.94,21.94,0,0,1,2.94.54,5.52,5.52,0,0,1,1.47.62,1.54,1.54,0,0,1,.39.35.93.93,0,0,1,.18.72,1.44,1.44,0,0,1-.66.85,12.48,12.48,0,0,1-2.79,1.21c-.93.31-1.87.58-2.8.85-1.87.54-3.73,1.06-5.56,1.66-.91.3-1.81.62-2.68,1a9.38,9.38,0,0,0-2.38,1.37,1.46,1.46,0,0,0-.59.9.63.63,0,0,0,.06.37,1.48,1.48,0,0,0,.41.34,11.23,11.23,0,0,0,2.6.92c1.85.45,3.76.74,5.68,1,7.66,1,15.4,1.53,23.13,2.13s15.47,1.09,23.2,1.8q2.89.27,5.79.64a46.92,46.92,0,0,1,5.74,1,6,6,0,0,1,1.39.52,5,5,0,0,1,1.1,1,4.06,4.06,0,0,1,.92,2.75,6.65,6.65,0,0,1-.83,2.79,11,11,0,0,1-1.68,2.37,8.77,8.77,0,0,0,2.37-5.16,3.87,3.87,0,0,0-.95-2.62,4.41,4.41,0,0,0-1.05-.93,6.64,6.64,0,0,0-1.34-.47,49.65,49.65,0,0,0-5.72-.88c-1.92-.21-3.85-.37-5.79-.53-7.72-.62-15.46-1-23.2-1.52s-15.49-1-23.21-2a57.59,57.59,0,0,1-5.77-1,11.58,11.58,0,0,1-2.87-1,2.36,2.36,0,0,1-.69-.6,1.57,1.57,0,0,1-.24-1,2.47,2.47,0,0,1,.9-1.52,10.35,10.35,0,0,1,2.63-1.53c.91-.4,1.84-.73,2.77-1,1.85-.62,3.72-1.14,5.58-1.69.93-.27,1.86-.53,2.77-.83a12,12,0,0,0,2.54-1.07,1.42,1.42,0,0,0,.26-.23v0a.86.86,0,0,0-.16-.13,5.35,5.35,0,0,0-1.2-.5,22.06,22.06,0,0,0-2.78-.51c-3.81-.48-7.69-.69-11.56-.91-7.73-.42-15.48-.66-23.23-1s-15.5-.58-23.25-1c-3.87-.21-7.74-.44-11.61-.74q-2.91-.22-5.8-.54A42.78,42.78,0,0,1,288.47,314.48Z" style="fill:#ebebeb"></path><path d="M48.38,433.17a41.23,41.23,0,0,0,5.75.81c1.93.18,3.86.31,5.8.42,3.87.22,7.74.37,11.61.5,7.75.28,15.5.48,23.25.69s15.51.46,23.26.83c3.88.21,7.75.4,11.64.88a23.78,23.78,0,0,1,2.93.53,5.87,5.87,0,0,1,1.47.62,1.6,1.6,0,0,1,.39.36.93.93,0,0,1,.18.72,1.44,1.44,0,0,1-.66.85,12,12,0,0,1-2.79,1.2c-.93.31-1.87.59-2.8.86-1.87.54-3.73,1.05-5.56,1.65-.91.3-1.81.62-2.68,1a9.35,9.35,0,0,0-2.38,1.36,1.49,1.49,0,0,0-.59.9.75.75,0,0,0,.06.38,1.47,1.47,0,0,0,.41.33,10.38,10.38,0,0,0,2.6.92c1.85.45,3.77.75,5.68,1,7.66,1,15.4,1.52,23.13,2.13s15.47,1.09,23.2,1.8q2.9.27,5.79.63a47,47,0,0,1,5.74,1,6,6,0,0,1,1.39.52,4.81,4.81,0,0,1,1.1,1,4,4,0,0,1,.92,2.75,6.65,6.65,0,0,1-.83,2.79,11,11,0,0,1-1.68,2.37,8.77,8.77,0,0,0,2.37-5.16,3.89,3.89,0,0,0-.94-2.62,4.66,4.66,0,0,0-1.06-.93,5.91,5.91,0,0,0-1.34-.47A45.65,45.65,0,0,0,178,455c-1.92-.21-3.85-.37-5.78-.53-7.73-.62-15.47-1-23.21-1.53s-15.49-1-23.21-2a57.59,57.59,0,0,1-5.77-1,11.16,11.16,0,0,1-2.86-1,2.25,2.25,0,0,1-.7-.6,1.54,1.54,0,0,1-.23-1,2.39,2.39,0,0,1,.89-1.52,10.28,10.28,0,0,1,2.64-1.54c.91-.39,1.83-.72,2.76-1,1.85-.62,3.72-1.15,5.58-1.69.93-.27,1.86-.54,2.77-.84a12,12,0,0,0,2.54-1.06,1.42,1.42,0,0,0,.26-.23s0,.07,0,0a1.16,1.16,0,0,0-.15-.13,4.63,4.63,0,0,0-1.21-.5,22.06,22.06,0,0,0-2.78-.51c-3.81-.49-7.69-.69-11.56-.92-7.73-.42-15.48-.65-23.23-1s-15.5-.59-23.25-1c-3.87-.21-7.74-.45-11.61-.75-1.93-.15-3.87-.32-5.8-.54A41.21,41.21,0,0,1,48.38,433.17Z" style="fill:#ebebeb"></path><path d="M66.12,271.22A15.74,15.74,0,0,0,69.68,273c1.25.47,2.52.87,3.79,1.24,2.56.72,5.15,1.34,7.75,1.9,5.2,1.12,10.44,2,15.69,2.9,10.49,1.77,21,3.24,31.58,4.64s21.12,2.69,31.68,4c5.29.68,10.57,1.29,15.85,2.17.66.13,1.32.25,2,.44a5.15,5.15,0,0,1,1,.42,1,1,0,0,1,.55.68.77.77,0,0,1-.14.59,1.23,1.23,0,0,1-.28.28,7.27,7.27,0,0,1-2,.84c-.65.19-1.3.35-2,.51-2.61.61-5.22,1.1-7.83,1.6s-5.22,1-7.77,1.7a28.51,28.51,0,0,0-3.73,1.21,5.81,5.81,0,0,0-1.59.91.87.87,0,0,0-.34.54c0,.18,0,.24.29.4a7.06,7.06,0,0,0,1.73.64c.63.16,1.28.3,1.92.42,1.3.24,2.61.42,3.93.59,2.63.34,5.27.59,7.92.82,10.6.88,21.23,1.39,31.86,1.93s21.27,1,31.9,1.62c5.31.34,10.62.7,15.92,1.36a29.63,29.63,0,0,1,3.94.72,5.51,5.51,0,0,1,1.8.93,4.42,4.42,0,0,1,1.35,1.5,3,3,0,0,1,.27,2,5.11,5.11,0,0,1-.79,1.84,12,12,0,0,1-2.79,2.84,11.63,11.63,0,0,0,2.71-2.89,3.63,3.63,0,0,0,.45-3.7,4.26,4.26,0,0,0-1.33-1.41,5.55,5.55,0,0,0-1.74-.86,31.91,31.91,0,0,0-3.91-.66c-5.28-.59-10.6-.85-15.91-1.15-10.63-.58-21.27-1-31.9-1.47s-21.27-.95-31.9-1.78c-2.65-.21-5.31-.45-8-.78-1.33-.16-2.65-.34-4-.58-.67-.12-1.33-.25-2-.42a7.57,7.57,0,0,1-2-.74,1.65,1.65,0,0,1-.51-.46,1.28,1.28,0,0,1-.2-.74,1.71,1.71,0,0,1,.62-1.16,6.76,6.76,0,0,1,1.84-1.09,29,29,0,0,1,3.86-1.27c2.59-.69,5.2-1.23,7.82-1.76s5.22-1,7.8-1.59c.64-.15,1.28-.31,1.91-.49a6.54,6.54,0,0,0,1.68-.67c.12-.07.07-.13.06.05s0,0-.1,0a4.41,4.41,0,0,0-.81-.32c-.61-.18-1.26-.3-1.9-.43-5.22-.9-10.51-1.54-15.78-2.25-10.56-1.37-21.12-2.72-31.67-4.18s-21.08-3-31.57-4.81c-5.25-.94-10.48-1.95-15.67-3.15-2.59-.61-5.17-1.27-7.72-2-1.27-.39-2.54-.81-3.78-1.3A16.24,16.24,0,0,1,66.12,271.22Z" style="fill:#ebebeb"></path><path d="M343.34,310.6c7.75,0,15.51.3,23.26.75,3.88.21,7.74.54,11.61.92A99.19,99.19,0,0,1,389.77,314a19.9,19.9,0,0,1,2.85.88,5.19,5.19,0,0,1,1.39.8,2.23,2.23,0,0,1,.33.35c.08.12.15.23.22.36a2.82,2.82,0,0,1,.29.83,2.39,2.39,0,0,1-.44,1.72,4.84,4.84,0,0,1-1.14,1.12,15.75,15.75,0,0,1-2.6,1.48c-.89.41-1.8.78-2.67,1.17-.44.2-.88.4-1.28.62a3.81,3.81,0,0,0-.56.35.86.86,0,0,0-.3.31s0,0,0,0a.7.7,0,0,0,.15.14,2.1,2.1,0,0,0,.54.25,11.1,11.1,0,0,0,1.35.35c.93.19,1.89.33,2.84.45,3.83.47,7.71.7,11.57.91s7.75.39,11.62.55c-7.76.06-15.52,0-23.27-.71-1-.1-1.94-.21-2.92-.39a10,10,0,0,1-1.46-.36,2.82,2.82,0,0,1-.78-.36,1.42,1.42,0,0,1-.36-.37.89.89,0,0,1-.12-.68,1.52,1.52,0,0,1,.61-.79,5.41,5.41,0,0,1,.67-.43c.44-.24.89-.45,1.33-.65.9-.41,1.79-.78,2.65-1.19a15.66,15.66,0,0,0,2.44-1.4c.72-.54,1.32-1.25,1.19-1.95a1.64,1.64,0,0,0-.2-.53,1.4,1.4,0,0,0-.16-.26c-.06-.05-.09-.12-.17-.18a4.48,4.48,0,0,0-1.13-.62,19.77,19.77,0,0,0-2.71-.81,101,101,0,0,0-11.43-1.78c-3.84-.43-7.7-.73-11.56-1.06s-7.73-.58-11.6-.82Z" style="fill:#ebebeb"></path><path d="M58.25,451.1c7.76,0,15.51.31,23.26.76,3.88.21,7.75.54,11.61.92a101,101,0,0,1,11.56,1.71,21.26,21.26,0,0,1,2.85.88,5.28,5.28,0,0,1,1.4.81,2.1,2.1,0,0,1,.32.34c.08.12.15.24.22.37a2.82,2.82,0,0,1,.29.83,2.35,2.35,0,0,1-.44,1.71,4.85,4.85,0,0,1-1.13,1.13,15.37,15.37,0,0,1-2.61,1.47c-.89.42-1.79.79-2.67,1.18-.44.19-.87.39-1.28.61a4.9,4.9,0,0,0-.56.35,1,1,0,0,0-.3.31v0a.6.6,0,0,0,.14.14,2.1,2.1,0,0,0,.54.25,13.3,13.3,0,0,0,1.35.35c.93.19,1.89.32,2.84.45,3.83.46,7.71.69,11.58.91s7.74.38,11.61.55c-7.75.06-15.51,0-23.27-.71-1-.1-1.94-.22-2.91-.39a9.84,9.84,0,0,1-1.47-.36,2.65,2.65,0,0,1-.77-.36,1.35,1.35,0,0,1-.37-.38.82.82,0,0,1-.11-.67,1.5,1.5,0,0,1,.6-.8,4.92,4.92,0,0,1,.67-.42c.44-.25.89-.45,1.34-.66.89-.4,1.78-.78,2.64-1.19a14.86,14.86,0,0,0,2.44-1.39c.72-.54,1.32-1.26,1.19-1.95a1.56,1.56,0,0,0-.2-.53,1.35,1.35,0,0,0-.33-.44,4.19,4.19,0,0,0-1.13-.62,18.47,18.47,0,0,0-2.71-.81A98.67,98.67,0,0,0,93,453.69c-3.85-.44-7.71-.73-11.57-1.06s-7.73-.58-11.6-.82Z" style="fill:#ebebeb"></path><path d="M55.43,330.66c-.1.39,2.42,3.88,1.66,4.38s-6.32-2.1-6.85-2.05a17,17,0,0,0-2.35,1.65c-1.27.92-2.72,1.83-3.5,1.59-1.47-.44,1.51-4.6,1.08-4.8s-5.32-1.68-4.93-2.53,5.92-1.07,6.32-1.21.65-4.94,2-5.22a.83.83,0,0,1,.46,0h0c1.36.51,3.09,4,3.86,4.53.41.29,6.31-1.3,7-.71S55.52,330.28,55.43,330.66Z" style="fill:#ebebeb"></path><path d="M49,323c-.71.08-.63.85.08.78S49.66,323,49,323Z" style="fill:#fff"></path><path d="M49.27,324.47c-.71.07-.64.84.08.77S50,324.4,49.27,324.47Z" style="fill:#fff"></path><path d="M49.55,325.91c-.71.07-.63.84.08.77S50.26,325.84,49.55,325.91Z" style="fill:#fff"></path><path d="M49.93,327.34c-.71.07-.64.84.07.77S50.64,327.27,49.93,327.34Z" style="fill:#fff"></path><path d="M50.23,328.7c-1.17.12-1,1.4.13,1.28S51.41,328.58,50.23,328.7Z" style="fill:#fff"></path><path d="M52.21,328.54c-.71.08-.64.85.07.78S52.92,328.47,52.21,328.54Z" style="fill:#fff"></path><path d="M54.32,328.08c-.71.07-.64.84.07.77S55,328,54.32,328.08Z" style="fill:#fff"></path><path d="M56.45,327.47c-.71.08-.64.85.08.78S57.16,327.4,56.45,327.47Z" style="fill:#fff"></path><path d="M58.31,326.88c-.71.08-.64.85.08.78S59,326.81,58.31,326.88Z" style="fill:#fff"></path><path d="M51.6,330.13c-.71.07-.64.84.08.77S52.31,330.06,51.6,330.13Z" style="fill:#fff"></path><path d="M52.79,331.26c-.71.07-.63.84.08.77S53.5,331.19,52.79,331.26Z" style="fill:#fff"></path><path d="M54.21,332.33c-.71.07-.64.84.08.77S54.92,332.26,54.21,332.33Z" style="fill:#fff"></path><path d="M55.63,333.47c-.71.07-.63.84.08.77S56.34,333.39,55.63,333.47Z" style="fill:#fff"></path><path d="M49.09,330.38c-.71.08-.63.85.08.78S49.8,330.31,49.09,330.38Z" style="fill:#fff"></path><path d="M47.94,331.65c-.71.08-.64.85.08.77S48.65,331.58,47.94,331.65Z" style="fill:#fff"></path><path d="M46.87,333c-.71.07-.63.84.08.77S47.58,332.89,46.87,333Z" style="fill:#fff"></path><path d="M45.75,334.39c-.71.07-.63.84.08.77S46.46,334.31,45.75,334.39Z" style="fill:#fff"></path><path d="M48.16,329c-.71.08-.64.85.08.78S48.87,328.88,48.16,329Z" style="fill:#fff"></path><path d="M46.23,329c-.71.07-.64.85.08.77S46.94,328.9,46.23,329Z" style="fill:#fff"></path><path d="M44.19,329c-.71.07-.63.84.08.77S44.9,328.89,44.19,329Z" style="fill:#fff"></path><path d="M42.24,328.77c-.71.07-.63.85.08.77S43,328.7,42.24,328.77Z" style="fill:#fff"></path><path d="M64.57,356.38c-.81-.48-2.72.24-2.48.79s1.21.47,1.37.56.76,1,1.25.74A1.45,1.45,0,0,0,64.57,356.38Z" style="fill:#ebebeb"></path><path d="M65.07,357.2l-2.58-.62a2.45,2.45,0,0,1,2.08-.2A1.16,1.16,0,0,1,65.07,357.2Z" style="fill:#c7c7c7"></path><path d="M65,357c3.18-.72,6.93-4.58,7-4.71h0a1.41,1.41,0,0,1,.85,1c.1.86-2.09,2.51-4.44,3.32A7,7,0,0,1,65,357Z" style="fill:#ebebeb"></path><path d="M65,357l-.24-.05a7.23,7.23,0,0,0,.65-.51,35.87,35.87,0,0,0,5.06-6A1.74,1.74,0,0,1,72,351c.36.47,0,1.34,0,1.34h0C71.9,352.43,68.15,356.29,65,357Z" style="fill:#ebebeb"></path><path d="M72,352.3a16.8,16.8,0,0,1-3.18,2.89,15,15,0,0,1-1.85,1.1,11.07,11.07,0,0,1-2,.73,17.5,17.5,0,0,0,3.73-2c.59-.4,1.15-.84,1.7-1.29S71.49,352.79,72,352.3Z" style="fill:#dbdbdb"></path><path d="M64.73,357a1.15,1.15,0,0,1-.26-.08l-.14-.06a39.56,39.56,0,0,0,2.12-4.51c.67-1.62,1.18-3,1.18-3s1.26-.55,2-.12a1.57,1.57,0,0,1,.66.74l.06.12.09.36S67.27,355.18,64.73,357Z" style="fill:#ebebeb"></path><path d="M70.44,350.42A25.42,25.42,0,0,1,67.92,354a17,17,0,0,1-3.19,3A48,48,0,0,0,70.44,350.42Z" style="fill:#dbdbdb"></path><path d="M64.33,356.83a14,14,0,0,1,.43-7.63,1.88,1.88,0,0,1,.4-.32,1.78,1.78,0,0,1,1.21-.29,1.64,1.64,0,0,1,1.26.73A66.5,66.5,0,0,1,64.33,356.83Z" style="fill:#ebebeb"></path><path d="M67.63,349.32c-.39,1.31-.9,2.58-1.42,3.85a23.85,23.85,0,0,1-1.88,3.66c.3-.62.57-1.25.84-1.87l.81-1.89C66.53,351.82,67,350.56,67.63,349.32Z" style="fill:#dbdbdb"></path><path d="M70.35,350.06a2.17,2.17,0,0,1,.09.36Z" style="fill:#ebebeb"></path><path d="M64.33,356.83l-.18-.09a2.67,2.67,0,0,1-1-.94,5.51,5.51,0,0,1-.75-2.33c0-.23,0-.48-.07-.75-.18-2.75,1-3.83,1.48-3.88a1.52,1.52,0,0,1,1,.36h0A14,14,0,0,0,64.33,356.83Z" style="fill:#ebebeb"></path><path d="M64.76,349.2a16,16,0,0,0-.41,1.89,15.36,15.36,0,0,0-.22,1.9,13.67,13.67,0,0,0,0,1.92,15.68,15.68,0,0,0,.22,1.92,8.82,8.82,0,0,1-.41-1.9,10.59,10.59,0,0,1,0-1.95A11.4,11.4,0,0,1,64.76,349.2Z" style="fill:#dbdbdb"></path><path d="M451.18,378.11c-.81-.49-2.73.24-2.48.78s1.21.48,1.36.57.77,1,1.26.74A1.45,1.45,0,0,0,451.18,378.11Z" style="fill:#ebebeb"></path><path d="M451.67,378.93l-2.57-.62a2.42,2.42,0,0,1,2.08-.2A1.13,1.13,0,0,1,451.67,378.93Z" style="fill:#c7c7c7"></path><path d="M451.58,378.74c3.18-.72,6.93-4.59,7-4.71h0a1.42,1.42,0,0,1,.86,1c.1.85-2.1,2.51-4.44,3.32A7.08,7.08,0,0,1,451.58,378.74Z" style="fill:#ebebeb"></path><path d="M451.58,378.74l-.24-.05c.21-.15.43-.32.65-.51a35.87,35.87,0,0,0,5.06-6,1.74,1.74,0,0,1,1.54.54c.36.47,0,1.34,0,1.34h0C458.51,374.15,454.76,378,451.58,378.74Z" style="fill:#ebebeb"></path><path d="M458.62,374a16.44,16.44,0,0,1-3.17,2.89A15,15,0,0,1,453.6,378a10,10,0,0,1-2,.73,16.66,16.66,0,0,0,3.73-2c.58-.4,1.14-.83,1.7-1.28S458.1,374.52,458.62,374Z" style="fill:#dbdbdb"></path><path d="M451.34,378.69a1.25,1.25,0,0,1-.27-.08l-.13-.06a37.56,37.56,0,0,0,2.11-4.52c.67-1.61,1.19-3,1.19-3s1.26-.56,2-.12a1.57,1.57,0,0,1,.67.73,1.12,1.12,0,0,1,.05.13l.1.36S453.88,376.91,451.34,378.69Z" style="fill:#ebebeb"></path><path d="M457,372.15a23.87,23.87,0,0,1-2.52,3.56,16.64,16.64,0,0,1-3.18,3A48.67,48.67,0,0,0,457,372.15Z" style="fill:#dbdbdb"></path><path d="M450.93,378.55a14.06,14.06,0,0,1,.43-7.62,2.07,2.07,0,0,1,.4-.33,1.82,1.82,0,0,1,1.22-.28,1.64,1.64,0,0,1,1.26.73A66.34,66.34,0,0,1,450.93,378.55Z" style="fill:#ebebeb"></path><path d="M454.24,371.05c-.4,1.31-.9,2.58-1.43,3.85a22.1,22.1,0,0,1-1.88,3.65c.31-.61.58-1.24.85-1.87l.8-1.88C453.13,373.55,453.65,372.28,454.24,371.05Z" style="fill:#dbdbdb"></path><path d="M457,371.79a1.79,1.79,0,0,1,.1.36Z" style="fill:#ebebeb"></path><path d="M450.93,378.55l-.17-.08a2.56,2.56,0,0,1-1-1,5.41,5.41,0,0,1-.75-2.32c0-.23-.06-.48-.07-.75-.19-2.75,1-3.84,1.48-3.88a1.46,1.46,0,0,1,1,.36h0A14.06,14.06,0,0,0,450.93,378.55Z" style="fill:#ebebeb"></path><path d="M451.36,370.93c-.17.62-.3,1.26-.41,1.89a17.27,17.27,0,0,0-.22,1.9,13.67,13.67,0,0,0,0,1.92,15.49,15.49,0,0,0,.21,1.91,9.32,9.32,0,0,1-.41-1.9,12.55,12.55,0,0,1,0-1.94A11.65,11.65,0,0,1,451.36,370.93Z" style="fill:#dbdbdb"></path><path d="M374.38,458.38c-1.21.24-2,2.21-1.21,2.43s1.53-.55,1.77-.6,1.76.18,1.86-.4S375.43,458.16,374.38,458.38Z" style="fill:#ebebeb"></path><path d="M375.7,458.61l-2.84,1.47a2.22,2.22,0,0,1,1.52-1.7A2.16,2.16,0,0,1,375.7,458.61Z" style="fill:#c7c7c7"></path><path d="M375.41,458.55c1.86-2.9.72-8.55.69-8.73h0a2.45,2.45,0,0,1,1.81.09c1,.56,1,3.42-.05,5.76A6.46,6.46,0,0,1,375.41,458.55Z" style="fill:#ebebeb"></path><path d="M375.41,458.55l-.25.14a8.42,8.42,0,0,0,0-.86c-.25-3.29-2.44-8.22-2.44-8.22a2.17,2.17,0,0,1,1.88-.75,2.67,2.67,0,0,1,1.52,1h0C376.13,450,377.27,455.65,375.41,458.55Z" style="fill:#ebebeb"></path><path d="M376.1,449.82a14.43,14.43,0,0,1,.49,4.44,12.79,12.79,0,0,1-.33,2.22,7.66,7.66,0,0,1-.85,2.07,12.07,12.07,0,0,0,.93-4.3,20.55,20.55,0,0,0,0-2.22C376.28,451.3,376.21,450.56,376.1,449.82Z" style="fill:#dbdbdb"></path><path d="M375.16,458.69l-.32.14-.17.06a44.82,44.82,0,0,0-3.22-4.92c-1.23-1.69-2.31-3.08-2.31-3.08s.44-1.35,1.53-1.58a2.93,2.93,0,0,1,1.37.05l.19.05.47.2S375.31,455.48,375.16,458.69Z" style="fill:#ebebeb"></path><path d="M372.7,449.61a24.9,24.9,0,0,1,1.75,4.4,15.49,15.49,0,0,1,.71,4.68,24,24,0,0,0-1-4.61c-.21-.76-.46-1.5-.71-2.25S373,450.35,372.7,449.61Z" style="fill:#dbdbdb"></path><path d="M374.67,458.89a21.28,21.28,0,0,1-8.06-5.94,1.48,1.48,0,0,1,0-.55,1.51,1.51,0,0,1,.7-1.11,2.56,2.56,0,0,1,1.86-.4S373.58,456.62,374.67,458.89Z" style="fill:#ebebeb"></path><path d="M369.14,450.89c1.06,1.22,2,2.53,3,3.84a29.52,29.52,0,0,1,2.55,4.16c-.42-.7-.89-1.36-1.35-2l-1.4-2C371,453.55,370,452.24,369.14,450.89Z" style="fill:#dbdbdb"></path><path d="M372.23,449.41a3.23,3.23,0,0,1,.47.2Z" style="fill:#ebebeb"></path><path d="M374.67,458.89l-.24.07a4.59,4.59,0,0,1-1.91.07,10.48,10.48,0,0,1-3.19-1.15c-.28-.16-.58-.32-.89-.51-3.19-1.89-3.4-3.57-3.05-4a2,2,0,0,1,1.21-.45h0A21.28,21.28,0,0,0,374.67,458.89Z" style="fill:#ebebeb"></path><path d="M366.61,453a26.53,26.53,0,0,0,5.84,4.74c.71.44,1.46.82,2.22,1.2a16.05,16.05,0,0,1-2.32-1,19.84,19.84,0,0,1-2.14-1.36A16.84,16.84,0,0,1,366.61,453Z" style="fill:#dbdbdb"></path></g><g id="freepik--Water--inject-23"><path d="M465.26,251.21H85.45c-28.68,0-.21,2.75,23.53,3s95.58,1.76,95.33,3.67-38,4.13-38,7,109.91,5.13,114.79,6.79-11.82,2.17-4.51,3.91c5.49,1.3,83.16,2.56,115.54,4.37,10.79.61-6.57,3.64,10.71,6.16,7.77,1.13,62.4,2.06,62.4,2.06Z" style="fill:#ebebeb"></path><path d="M465.26,251.21H130.38c-25.28,0-.18,2.75,20.75,3s84.27,1.76,84.05,3.67-33.49,4.13-33.49,7,96.91,5.13,101.22,6.79-10.43,2.17-4,3.91c4.84,1.3,73.32,2.56,101.87,4.37,9.52.61-5.79,3.64,9.45,6.16,6.84,1.13,55,2.06,55,2.06Z" style="fill:#c7c7c7"></path><path d="M138.54,251.91c4.76.27,9.53.32,14.3.43l14.3.33,28.62.76c9.53.34,19.07.63,28.6,1.11,2.38.13,4.76.25,7.15.41a61.35,61.35,0,0,1,7.14.78,17.89,17.89,0,0,1,1.76.4,6.88,6.88,0,0,1,.87.3,2.61,2.61,0,0,1,.43.24.63.63,0,0,1,.31.51.64.64,0,0,1-.29.51,2.57,2.57,0,0,1-.41.26,6.85,6.85,0,0,1-.85.34q-.87.29-1.74.48c-2.33.54-4.69.89-7.06,1.22,2.35-.43,4.7-.88,7-1.48.57-.15,1.14-.32,1.69-.52a7.17,7.17,0,0,0,.8-.35c.23-.12.51-.34.49-.45s-.29-.3-.53-.39-.54-.18-.82-.26c-.57-.14-1.15-.24-1.74-.33a62,62,0,0,0-7.09-.63c-2.38-.12-4.76-.19-7.14-.27l-28.61-.88-28.6-1C157.59,253,148.05,252.76,138.54,251.91Z" style="fill:#fff"></path><path d="M244.15,264c4.67.44,9.38.49,14.07.64l14.09.23,28.18.32q14.1.13,28.19.4,7.05.13,14.1.38c2.35.11,4.7.2,7.07.44a14.48,14.48,0,0,1,1.79.29,2.78,2.78,0,0,1,.49.16,1.21,1.21,0,0,1,.32.18.59.59,0,0,1,.22.35.64.64,0,0,1-.11.51,1.34,1.34,0,0,1-.6.37l-.46.15c-1.2.3-2.35.46-3.52.64-4.66.68-9.35,1.12-13.92,2a13,13,0,0,0-3.21,1,.83.83,0,0,0-.18.15s0-.14,0-.12.06,0,.16.07l.36.12a17,17,0,0,0,1.67.33c2.3.33,4.64.5,7,.68,9.36.63,18.75.91,28.14,1.26l28.17,1c4.69.19,9.39.41,14.08.75q1.75.12,3.51.3c.59.07,1.17.13,1.76.23a6.12,6.12,0,0,1,1.72.48,3.83,3.83,0,0,1,1.47,1,1.23,1.23,0,0,1,.28.87,1.7,1.7,0,0,1-.32.84,7.51,7.51,0,0,1-2.81,2.09,7.46,7.46,0,0,0,2.72-2.15,1.25,1.25,0,0,0,0-1.55,3.71,3.71,0,0,0-1.43-.92,12.16,12.16,0,0,0-3.41-.62c-1.17-.11-2.34-.18-3.51-.25-4.69-.26-9.39-.38-14.08-.54l-28.18-.76c-9.39-.27-18.78-.56-28.17-1.15-2.35-.17-4.7-.33-7-.67a17,17,0,0,1-1.79-.34,3.27,3.27,0,0,1-.47-.16,1.33,1.33,0,0,1-.58-.4.87.87,0,0,1-.15-.47.82.82,0,0,1,.15-.47,1.52,1.52,0,0,1,.47-.43,13.13,13.13,0,0,1,3.51-1.09c4.66-.91,9.34-1.38,14-2,1.16-.17,2.33-.34,3.41-.61a2.9,2.9,0,0,0,.38-.11c.1,0,.26-.14.17-.06a.36.36,0,0,0-.06.31c0,.14.08.16.1.17s0,0-.07,0l-.35-.1a12.8,12.8,0,0,0-1.68-.28c-2.3-.24-4.65-.34-7-.46-4.69-.18-9.38-.31-14.08-.42L300.48,266l-28.18-.6-14.09-.46C253.52,264.68,248.82,264.55,244.15,264Z" style="fill:#fff"></path><path d="M313.24,261.83c4.71-.05,9.42,0,14.14,0l14.13.22c4.71.09,9.42.27,14.13.46s9.42.43,14.13.84c1.17.11,2.35.24,3.53.39a18.2,18.2,0,0,1,3.57.75,2.19,2.19,0,0,1,.91.66,1,1,0,0,1,.22.76,1.1,1.1,0,0,1-.36.64,4.89,4.89,0,0,1-1.75.88,31.6,31.6,0,0,1-3.48.87l-3.47.68c-.57.12-1.14.24-1.68.39a3,3,0,0,0-.66.25s0,0,0-.07a.36.36,0,0,0,0-.27c-.07-.1-.05,0,0,0a1.94,1.94,0,0,0,.34.11,30.44,30.44,0,0,0,3.42.42c1.17.09,2.35.16,3.52.23,4.7.26,9.4.4,14.11.54l14.13.4c-9.42.12-18.85.13-28.28-.2-1.17,0-2.35-.09-3.53-.17a25.12,25.12,0,0,1-3.59-.4,2,2,0,0,1-.5-.17.74.74,0,0,1-.36-.31.55.55,0,0,1,0-.47A.61.61,0,0,1,366,269a3.1,3.1,0,0,1,1-.43c.59-.17,1.17-.29,1.75-.41l3.47-.71a33,33,0,0,0,3.36-.86,4.46,4.46,0,0,0,1.4-.68.43.43,0,0,0,.08-.11s0,0,0,0a1.46,1.46,0,0,0-.52-.36,17.19,17.19,0,0,0-3.34-.65c-1.16-.15-2.32-.27-3.49-.37-9.36-.82-18.79-1.13-28.19-1.51Z" style="fill:#fff"></path></g><g id="freepik--Sun--inject-23"><path d="M284.68,250.34c0,.34,0,.68,0,1H215.27c0-.34,0-.68,0-1a34.72,34.72,0,1,1,69.43,0Z" style="fill:#FFC100"></path><path d="M188.42,251.13c2-.09,4-.13,6.06-.17s4.05,0,6.07-.05,4,0,6.06.05l3,.07c1,0,2,.05,3,.1-1,.06-2,.08-3,.11l-3,.07c-2,0-4,0-6.06.05s-4,0-6.07-.05S190.44,251.23,188.42,251.13Z" style="fill:#FFC100"></path><path d="M250,213.72c-.09-3.14-.14-6.28-.17-9.42l-.05-9.42.05-9.42.06-4.71c0-1.57.06-3.14.11-4.71.05,1.57.07,3.14.11,4.71l.06,4.71.05,9.42-.05,9.42C250.1,207.44,250.06,210.58,250,213.72Z" style="fill:#FFC100"></path><path d="M231.3,218.75c-1.1-1.72-2.16-3.47-3.22-5.22S226,210,225,208.24s-2-3.55-3-5.34l-1.48-2.68c-.48-.91-1-1.8-1.44-2.71.56.86,1.09,1.73,1.63,2.6l1.59,2.62c1.05,1.76,2.07,3.53,3.11,5.29s2,3.55,3,5.34S230.36,216.94,231.3,218.75Z" style="fill:#FFC100"></path><path d="M217.65,232.45c-2.77-1.49-5.51-3-8.24-4.56l-8.19-4.67-8.13-4.75-4-2.41c-1.35-.82-2.69-1.62-4-2.45,1.39.74,2.76,1.51,4.13,2.26l4.11,2.3,8.19,4.67,8.13,4.75C212.28,229.19,215,230.8,217.65,232.45Z" style="fill:#FFC100"></path><path d="M287.39,251c2-.09,4-.14,6.06-.17s4,0,6.07-.05,4,0,6.06.05l3,.06c1,0,2,.06,3,.11-1,.05-2,.07-3,.11l-3,.06c-2,0-4,0-6.06,0s-4,0-6.07,0S289.41,251.1,287.39,251Z" style="fill:#FFC100"></path><path d="M282.35,232.34c2.67-1.65,5.37-3.26,8.07-4.86l8.13-4.75,8.19-4.67,4.1-2.3c1.38-.75,2.75-1.52,4.14-2.26-1.34.83-2.68,1.64-4,2.45l-4,2.41-8.13,4.75-8.19,4.67C287.86,229.32,285.12,230.85,282.35,232.34Z" style="fill:#FFC100"></path><path d="M268.66,218.69c.93-1.81,1.92-3.6,2.9-5.38s2-3.55,3-5.32,2.05-3.53,3.1-5.27l1.58-2.62c.54-.86,1.07-1.73,1.62-2.59-.46.91-.95,1.8-1.43,2.7L278,202.89c-1,1.78-2,3.55-3,5.32s-2,3.52-3.1,5.27S269.75,217,268.66,218.69Z" style="fill:#FFC100"></path></g><g id="freepik--Floor--inject-23"><polygon points="34.74 251.27 88.56 251.03 142.37 250.94 250 250.77 357.63 250.94 411.44 251.02 465.26 251.27 411.44 251.51 357.63 251.6 250 251.77 142.37 251.6 88.56 251.51 34.74 251.27" style="fill:#263238"></polygon><path d="M47.88,251.07s7-11.29,7.27-19.23c.32-8.65-5-17.9-5-17.9l.41-.32s7.46,9.5,6.75,19.51c-.69,9.69-6.32,17.94-6.32,17.94Z" style="fill:#263238"></path><path d="M50.26,213.62s4.44-4,6.5-3.86,6.23,4.81,6.23,5-3.58-2.48-3.58-2.48l2.1,2.71-3-2.78,1,2.33-1.74-2.58.48,2.45L56.57,212l.83,1.81-1.32-1.47.49,1.31-1.13-1.16.9,1.68-1.51-1.55.61,1.35s-.78-.81-.91-.93.26.9.26.9l-1.26-1.29.29,1.16-.64-.68.13.68-.65-.68.14.62-1-.65.13.32Z" style="fill:#263238"></path><path d="M50.3,213.59s7.11.76,8.82,2,4.19,5.68,4.19,5.68l-3.58-3.66,1.78,3.66L59,217.41l.51,3.23L57.6,217l.71,3.2L57,216.54,57.4,220l-1.64-3.81.45,2.74-1.38-3.06.51,2.71-1.87-3.55.71,3-1.38-3.26.19,1.58-1.05-1.93.37,1.29-1.2-1.7.17,1.05Z" style="fill:#263238"></path><path d="M50.32,213.62s.39-4.9,1.68-6,5.51-2.42,5.51-2.42L55,206.39l2.51-.22-3.41.71,2.74.16-3,.35,2.79.74-3.1-.22,1.65.58-2.07.19,2.39.33-2.81.38h2L52,210.1a12.28,12.28,0,0,1,1.92,0,13.2,13.2,0,0,1-2.15.65l1.18.16-1.34.23,1,.38-1.29,0,1,.25-1.1.29.46.2-.84.4Z" style="fill:#263238"></path><path d="M50.39,213.56s-2.25,3.73-1.73,6.31,3.42,7.19,3.42,7.19l-1.45-2.93,2,1.87-2.27-2.94,2.27,1.33-2-2.07,1.85.68-1.68-1.58,1.87.71-1.87-1.45,1.68.41-2.2-1.42,2.07.64-1.58-1,1.48.23-1.85-1.1,1.53.07-1.87-1.2,1.74.45-1.71-1,1.42.1s-1.16-.87-1.23-.87,1.1.19,1.1.19l-1-1.06.53-.1Z" style="fill:#263238"></path><path d="M50.32,213.62s-2.1-4.82-4.12-5.85-5.64-1-5.64-1l2.56.56-2.34.19,3.8.37-3.63.32,4.49.5-4,.3,3.38.58-1.79.45,2.67-.11-2.21.46,2.88.32-2,.49h3.48l-2,.58,2.15,0-1.33.35s1.89.4,2,.4-1.12.09-1.12.09l2.09.43-.71.07Z" style="fill:#263238"></path><path d="M50.3,213.56s.07-6-.81-7.5A5.33,5.33,0,0,0,46.65,204l1.53,1.19-1.53-.2,1.59,1-1.72-.12,2.07.9-1.68-.19,1.54.71-1,0,1.45.84-1.23-.28,1.38,1-1.27-.35,1.55,1.08-1.14-.37,1.48,1.06-1.1-.33,1.12.73L49,210.5l.89.73-.76-.35.89.91-.54-.2Z" style="fill:#263238"></path><path d="M50.39,213.73s-6.76-2.12-9.79-1.08-4.48,4.63-4.48,4.63l2.15-2.22-.68,2.39,1.93-2.86L39,217.26l1.3-2.69-.46,2.77,1.49-2.92-.32,3,1.46-3.2-.39,2.32,1.46-2.66L42.73,217l1.68-3.13s-.5,2.85-.48,2.72,1.21-2.58,1.21-2.58l-.22,1.79.93-1.68-.18,1.29,1.08-1.54-.36,1.45,1.07-1.45-.17.87a14,14,0,0,1,1.15-.93C48.56,213.82,50.39,213.73,50.39,213.73Z" style="fill:#263238"></path><path d="M50.39,213.62s-3.89,1-5.1,2.71-.1,8.11-.1,8.11l0-3.7L46,222.5l-.67-2.71,1.34,1.89-1.21-3,1.42,2.22-1-3,1.31,2.15-.81-2.88,1.09,2.23L47,216.67l.8,1.66-.37-2.13.69,1.25-.21-1.83.42,1,.2-1.32,0,.71.44-1.4v.72l.49-1Z" style="fill:#263238"></path><path d="M47.19,251.07h7.87s-.51-2.8,3.1-4.13a4.83,4.83,0,0,0-3.7,2.37s1.76-4.74,5.59-5.6a9.78,9.78,0,0,0-6.64,5.21s-.78-4.14,4.9-6.43c0,0-5.13.38-7.08,6.77,0,0,1-5.55-3.22-7.87,0,0,2.66,2.63,2.28,5.94a5.85,5.85,0,0,0-6.11-3.87s4.81,1.54,5.2,4.81A6.13,6.13,0,0,0,45,245.61s2.45,1.16,2.84,2.32c0,0-1.55-1.42-2.88-.69C44.91,247.24,47.75,247.63,47.19,251.07Z" style="fill:#263238"></path><path d="M128.86,251.07s3.6-5.83,3.75-9.93c.17-4.46-2.56-9.24-2.56-9.24l.21-.16s3.85,4.9,3.49,10.07a21.27,21.27,0,0,1-3.27,9.26Z" style="fill:#263238"></path><path d="M130.09,231.74s2.29-2.06,3.36-2,3.21,2.49,3.21,2.57-1.85-1.28-1.85-1.28l1.09,1.4L134.35,231l.5,1.2-.9-1.33.25,1.27-.85-1.22.43.93-.68-.75.25.67-.59-.6.47.87-.78-.8.31.7-.46-.49c-.07-.06.13.47.13.47l-.65-.67.15.6-.33-.35.06.35-.33-.35.07.32-.5-.33.06.16Z" style="fill:#263238"></path><path d="M130.11,231.72s3.67.39,4.55,1.06a13.16,13.16,0,0,1,2.17,2.93L135,233.82l.92,1.89-1.32-2,.27,1.67-1-1.88.37,1.65-.7-1.89.23,1.8-.85-2,.23,1.41-.71-1.58.26,1.4-1-1.83.36,1.56-.71-1.68.1.82-.54-1,.19.66-.62-.87.08.54Z" style="fill:#263238"></path><path d="M130.12,231.74s.2-2.54.87-3.12a11.86,11.86,0,0,1,2.85-1.25l-1.3.63,1.3-.11-1.77.36,1.42.09-1.53.18,1.45.38-1.6-.11.85.3-1.07.1,1.23.16-1.45.2h1l-1.42.37a6.53,6.53,0,0,1,1,0,6.76,6.76,0,0,1-1.1.33l.6.09-.69.11.52.2-.67,0,.52.13-.57.15.24.1-.44.21Z" style="fill:#263238"></path><path d="M130.16,231.7s-1.16,1.93-.89,3.26a16,16,0,0,0,1.76,3.72l-.75-1.52,1.05,1-1.17-1.52,1.17.68-1.05-1.06.95.35-.87-.82,1,.37-1-.75.87.21-1.13-.73,1.06.33-.81-.5.76.12-1-.57.79,0-1-.62.9.24-.88-.52.73.05s-.6-.45-.63-.45l.56.1-.5-.55.27-.05Z" style="fill:#263238"></path><path d="M130.12,231.74s-1.08-2.49-2.13-3a7.62,7.62,0,0,0-2.91-.48l1.32.28-1.21.1,2,.19-1.88.17,2.32.26-2.07.15,1.74.3-.92.23,1.38,0-1.15.23,1.49.17-1,.25h1.8l-1.05.3,1.11,0-.69.18s1,.21,1.06.21l-.58,0,1.08.23-.37,0Z" style="fill:#263238"></path><path d="M130.11,231.7s0-3.08-.42-3.87a2.74,2.74,0,0,0-1.46-1.07l.79.61-.79-.1.82.5-.89-.07,1.07.47-.87-.1.8.36-.53,0,.74.43-.63-.15.71.5-.66-.17.8.55-.59-.19.77.55-.57-.17.58.38-.34-.07.45.38-.39-.18.46.47-.28-.1Z" style="fill:#263238"></path><path d="M130.16,231.79s-3.49-1.09-5.06-.56a4.56,4.56,0,0,0-2.31,2.39l1.11-1.14-.35,1.23,1-1.47-.28,1.37.67-1.38-.24,1.43.77-1.51-.17,1.56.76-1.65-.2,1.2.75-1.38-.41,1.62.87-1.62s-.26,1.48-.25,1.41.63-1.33.63-1.33l-.11.92.47-.87-.09.67.56-.8-.19.76.56-.76-.09.46s.53-.47.59-.49Z" style="fill:#263238"></path><path d="M130.16,231.74a5.79,5.79,0,0,0-2.63,1.39c-.63.88-.06,4.19-.06,4.19v-1.91l.42.91-.34-1.4.69,1-.63-1.56.74,1.15-.54-1.55.68,1.11-.42-1.48.57,1.15-.21-1.41.41.86-.19-1.1.35.64-.11-.94.22.52.1-.68,0,.37.22-.73v.37l.25-.49Z" style="fill:#263238"></path><path d="M128.5,251.07h4.07s-.26-1.44,1.6-2.13a2.5,2.5,0,0,0-1.91,1.22s.91-2.44,2.89-2.89a5,5,0,0,0-3.43,2.69s-.4-2.14,2.53-3.32a4.52,4.52,0,0,0-3.66,3.5s.54-2.87-1.66-4.07a4.16,4.16,0,0,1,1.17,3.07,3,3,0,0,0-3.15-2s2.49.8,2.69,2.49a3.17,3.17,0,0,0-2.29-1.38s1.27.6,1.47,1.2c0,0-.8-.73-1.49-.36C127.33,249.09,128.79,249.29,128.5,251.07Z" style="fill:#263238"></path><path d="M76.81,251.16h4.57s-7.78-6.61-9-13.12,1-9.34,1-9.34l-.47-.28a14.85,14.85,0,0,0-1.32,9.76C72.75,243.61,76.81,251.16,76.81,251.16Z" style="fill:#263238"></path><path d="M72.91,228.92s-4.16,1.54-5.48,2.77-1.63,6.2-1.63,6.2l.88-3.46-.38,2.95,1.07-3.8-.09,3.74L68,232.6l.06,3.84.47-4.06.35,3.1.16-3.29.31,2.52.38-3.05-.09,2.73.84-3.14-.15,2,.92-2.17-.32,1.64.69-2-.16,1.13Z" style="fill:#263238"></path><path d="M72.91,228.92s2.42,1.42,2.76,3.4-.5,6-.5,6l0-3.21-.81,2.14.46-3.12-.78,2.3.32-3.07L73.6,235l.5-2.61-.78,1.23.56-2.14-.82,1.26.48-2.27-.63,1.07.31-1.73-.5.7.34-1.11Z" style="fill:#263238"></path><path d="M72.72,229.29s-1.64-2.95-4.25-3.86a8.08,8.08,0,0,0-5.44.44l3-.19-2,.79,2.95-.29-2.26,1.2,3.14-.79s-2,1.95-1.88,1.83,2.42-1.61,2.42-1.61l-1.35,2.11,2.1-1.72-1.29,2.09,1.95-1.56-1.57,1.82,2.33-1.13-1.23,1.22,1.73-.72-.75.72,1.48-.72Z" style="fill:#263238"></path><path d="M72.91,228.92s.25-4.84-.85-7.11-4.85-3.39-4.85-3.39l2.52,2-2.52-1L70.07,221s-2.32-.4-2.42-.44l2.77,1.07-2.83-.06,2.89.63-2.61.09,2.74.63-2.74.1,3.38.69-2.81-.22,2.81.85-2.37-.1,2.67.91-2.2-.18,2.33.72-1.42-.09,1.73.72-1.29.06,1.45.41-.9.16,1.15.47H71.11l1.29.66Z" style="fill:#263238"></path><path d="M72.91,229.3a8.68,8.68,0,0,1,4.43-1.07c2,.28,4.53,2.45,4.53,2.45l-1.64-.82.79,1.36-1.35-1.52.44,2-.88-1.89-.06,1.7-.92-1.86v1.77l-.75-1.77.06,2.05-1-2.05-.13,1.45-.47-1.7-.23,1.2-.43-1.07-.35.94-.25-1.19-.22.95-.44-.86Z" style="fill:#263238"></path><path d="M72.93,228.76s-.31-4.4.64-6.29,4-3.9,4-3.9l-1.8,2,2-.54-2.43,1.26h2.27l-2.54.53a12,12,0,0,0,1.72.7c.19,0-2-.29-2-.29l1.59,1.14-1.94-.51,1.73.93-1.82-.28,1.4.64L74,224.11s1.15.55,1.19.55l-1.44-.08,1.26.79-1.29-.08,1.13.53-1.15,0,.77.28-.93.22.9.1-.93.24.83.17-.86.12.61.21-.8.14.47.28-.61.21.33.14Z" style="fill:#263238"></path><path d="M72.91,229.3s1.8-4,3.8-5.27,6.51-.78,6.51-.78l-3.65.64L82.28,225l-3.42-.45,2.33,1.11-3.13-.75,2.12,1.27-3.09-.92,2.45,1.53-3-1.13,1.94,1.77L76.1,226l1.82,1.7-2.16-1.32L77,228l-1.63-1.18,1,1.4-1.38-1,.82,1.21-1.17-.69.73,1-1.23-.7.81.86s-1.07-.5-1.14-.5.48.5.48.5l-.74-.16Z" style="fill:#263238"></path><path d="M74,251.16s.29-1.8-2.21-3.73a4.67,4.67,0,0,1,2.47,2.29A4.22,4.22,0,0,0,71.18,246,4.43,4.43,0,0,1,75,249s-.19-3.32-2.81-4.79A7.39,7.39,0,0,1,76,248.83a7.66,7.66,0,0,1,4.83-3s-2.92,1.17-3,3.43c0,0,2.14-2.86,4.78-2.63,0,0-3,.8-3,2.94a3.43,3.43,0,0,1,3.21-1.72s-3.33,1.32-1.91,3.33Z" style="fill:#263238"></path><path d="M160.83,251.16h4.94S157.36,244,156,237s1.07-10.09,1.07-10.09l-.51-.3a16,16,0,0,0-1.43,10.54C156.45,243,160.83,251.16,160.83,251.16Z" style="fill:#263238"></path><path d="M156.62,227.15s-4.49,1.66-5.91,3-1.77,6.69-1.77,6.69l.95-3.74-.41,3.19,1.16-4.1-.1,4,.78-5.1.07,4.15.51-4.39.37,3.35.17-3.55.34,2.72.41-3.3-.11,3,.92-3.4-.17,2.14,1-2.34-.35,1.76.74-2.2-.17,1.22Z" style="fill:#263238"></path><path d="M156.62,227.15s2.61,1.53,3,3.67-.54,6.52-.54,6.52l0-3.47-.88,2.31.5-3.36-.85,2.48.35-3.31-.79,1.75.55-2.82-.85,1.32.61-2.31-.88,1.36.51-2.44-.68,1.15.34-1.87-.55.75.38-1.19Z" style="fill:#263238"></path><path d="M156.41,227.55s-1.76-3.19-4.58-4.17a8.75,8.75,0,0,0-5.88.48l3.3-.21-2.21.85,3.19-.31-2.44,1.3,3.39-.85s-2.14,2.1-2,2,2.61-1.74,2.61-1.74l-1.46,2.28,2.27-1.85-1.39,2.25,2.11-1.69-1.7,2,2.51-1.22-1.32,1.32,1.87-.78-.82.78,1.6-.78Z" style="fill:#263238"></path><path d="M156.62,227.15s.27-5.23-.92-7.68-5.23-3.66-5.23-3.66l2.72,2.14-2.72-1.06,3.09,1.67s-2.51-.44-2.62-.48l3,1.16-3.05-.07,3.12.68-2.82.1,3,.68-3,.1,3.65.75-3-.24,3,.92-2.56-.1,2.89,1-2.38-.2,2.51.78-1.53-.1,1.87.78-1.39.06,1.56.45-1,.17,1.24.5h-1.39l1.39.72Z" style="fill:#263238"></path><path d="M156.62,227.56s2.64-1.46,4.78-1.16,4.89,2.65,4.89,2.65l-1.76-.88.85,1.46L163.92,228l.47,2.15-.95-2-.07,1.83-1-2v1.9l-.82-1.9.07,2.21-1-2.21-.14,1.56-.51-1.83-.25,1.29-.46-1.16-.37,1-.27-1.29-.25,1-.47-.93Z" style="fill:#263238"></path><path d="M156.64,227s-.33-4.75.69-6.79,4.31-4.21,4.31-4.21l-1.95,2.17,2.16-.58-2.63,1.36h2.46l-2.75.58a13,13,0,0,0,1.86.75c.21,0-2.2-.31-2.2-.31l1.71,1.22-2.09-.54,1.87,1-2-.3,1.51.69-1.78-.07s1.24.6,1.29.6l-1.56-.09,1.36.85-1.4-.08,1.23.57-1.24,0,.83.31-1,.23,1,.11-1,.25.9.19-.93.13.66.22-.87.16.51.3-.66.22.36.16Z" style="fill:#263238"></path><path d="M156.62,227.56s1.94-4.37,4.1-5.69,7-.84,7-.84l-3.94.69,2.93,1.14-3.7-.48,2.52,1.2-3.37-.82,2.28,1.38-3.34-1,2.65,1.66-3.26-1.22,2.09,1.9L160.06,224l2,1.83-2.33-1.43,1.29,1.79-1.76-1.28,1.08,1.51-1.49-1.07.88,1.3-1.26-.74.79,1.11-1.32-.76.86.93s-1.14-.54-1.22-.54.51.54.51.54l-.79-.17Z" style="fill:#263238"></path><path d="M157.83,251.16s.31-1.94-2.39-4a5,5,0,0,1,2.67,2.47,4.54,4.54,0,0,0-3.36-4,4.79,4.79,0,0,1,4.13,3.26s-.21-3.59-3-5.17c0,0,2.73,1,4.07,5a8.33,8.33,0,0,1,5.22-3.26s-3.15,1.26-3.2,3.7c0,0,2.31-3.09,5.16-2.85,0,0-3.26.88-3.26,3.19a3.7,3.7,0,0,1,3.47-1.86s-3.59,1.42-2.06,3.59Z" style="fill:#263238"></path><path d="M34.87,251.27s19.08-4.69,28.34-5.6,46.69,2.87,47.92,3.24,37-1.59,45.85-2.2,154.66,4.56,154.66,4.56Z" style="fill:#263238"></path></g><g id="freepik--Trees--inject-23"><path d="M404.26,110.9s-.52,48.31,15.52,100c9.25,29.83,28.67,60.79,44.89,84.27h-27s-23.29-57.68-28.44-83.6c-11.49-57.81-7-101.53-7-101.53Z" style="fill:#FFC100"></path><path d="M404.26,110.9s-.52,48.31,15.52,100c9.25,29.83,28.67,60.79,44.89,84.27h-27s-23.29-57.68-28.44-83.6c-11.49-57.81-7-101.53-7-101.53Z" style="opacity:0.30000000000000004"></path><path d="M430.65,277.2c.08.21.16.42.23.63,1.31,0,2.62,0,3.93-.07,2.24-.05,4.49-.11,6.74-.25-2.25-.13-4.5-.19-6.74-.25Z" style="fill:#FFC100"></path><path d="M433,267.26c1.13.07,2.25.1,3.37.16l3.37.09c2.25.06,4.49.07,6.74.07h.19c-.14-.21-.27-.43-.4-.65-2.18,0-4.35,0-6.53.08l-3.37.08C435.27,267.15,434.15,267.18,433,267.26Z" style="fill:#FFC100"></path><path d="M436.52,262.89c1.12.07,2.24.11,3.36.16l3.37.09.79,0-.32-.53h-.47l-3.37.09C438.76,262.79,437.64,262.82,436.52,262.89Z" style="fill:#FFC100"></path><path d="M416.53,237.71c.05.13.09.25.13.38,1.49,0,3-.1,4.47-.19C419.6,237.81,418.07,237.75,416.53,237.71Z" style="fill:#FFC100"></path><path d="M414.62,231.71c.06.2.13.4.19.59.74,0,1.47,0,2.2,0,2.25,0,4.49-.11,6.73-.25-2.24-.13-4.48-.2-6.73-.25Z" style="fill:#FFC100"></path><path d="M407.92,204.66c0,.11,0,.24.07.36q2-.06,4.08-.18C410.68,204.76,409.31,204.7,407.92,204.66Z" style="fill:#FFC100"></path><path d="M405.09,178.19c1.12.07,2.24.1,3.36.16l3.09.09-.09-.49-3,.08C407.33,178.08,406.21,178.12,405.09,178.19Z" style="fill:#FFC100"></path><path d="M402,154.11a1.27,1.27,0,0,0,0,.2c.67,0,1.34-.06,2-.1Z" style="fill:#FFC100"></path><path d="M407.65,175c1.08.07,2.16.1,3.24.15l-.06-.31C409.77,174.84,408.71,174.87,407.65,175Z" style="fill:#FFC100"></path><path d="M438.12,80,430.06,78l7.16,5a32.34,32.34,0,0,1-5.3,9.61L423.85,89l5.71,6.27a34.53,34.53,0,0,1-2.94,2.66l-4.74-2.37,2.66,3.94a44.71,44.71,0,0,1-6.62,3.87l-3.85-4.28,2.19,5a69.52,69.52,0,0,1-14.14,4.36l33.37-57.95a53.83,53.83,0,0,1,3.44,13.6l-3.54-.06,3.73,2c.12,1.48.19,3,.17,4.61l-8.38-.86,8.16,4.72A36.79,36.79,0,0,1,438.12,80Z" style="fill:#455a64"></path><path d="M450.26,109.72l-3.05-3.67,1.59,5a25.12,25.12,0,0,1-5.41,3.61l-3.56-6.75.29,8.09a27,27,0,0,1-3.7.93l-2.34-4.86-.21,5.21a34.14,34.14,0,0,1-6.61-.06L426,108.78l-2.2,8c-1.12-.2-2.26-.45-3.45-.76v-5.56l-2.92,4.71a80.8,80.8,0,0,1-15.06-6.71l54.5-9.12A28.37,28.37,0,0,1,450.26,109.72Z" style="fill:#37474f"></path><path d="M402.35,108.51a95.26,95.26,0,0,1-12.41-16.19l5.95-3.53L388.62,90a65.33,65.33,0,0,1-2.88-5.92l6.07-4-7.32.79a51.68,51.68,0,0,1-1.52-5l10.53-3.8-11.62-1.81a46.26,46.26,0,0,1-.2-10.86h0l13.71-3.09L382.5,54.25c.2-.93.42-1.83.67-2.72l7.42.29-6.65-2.77a51.52,51.52,0,0,1,2.62-6.3L397.15,45l-8.88-5.42a55.87,55.87,0,0,1,12.14-14.66Z" style="fill:#37474f"></path><path d="M382.8,101l2.26-5.9-4.72,4.6h0c-.91-.5-1.82-1-2.73-1.57l2.45-4.09-3.9,3.21c-1.47-.92-2.92-1.9-4.33-3l3.77-4.9-6.17,3a47.67,47.67,0,0,1-7.09-7L370,79.1l-9.62,3.64a32.78,32.78,0,0,1-3.69-7.19l7.55-5-8.45,2.07a29.27,29.27,0,0,1-.74-4.27l11.32-5L355,62.65a35.42,35.42,0,0,1,1-5.78l8.15-.5-7.37-2.23A56.18,56.18,0,0,1,362.47,42s11.46,45.15,39.88,66.53A102.55,102.55,0,0,1,382.8,101Z" style="fill:#455a64"></path><path d="M387.52,113.79,386.17,111l.48,2.93c-.81.11-1.62.17-2.4.21l-.94-3.74-1,3.75a25,25,0,0,1-3.31-.29l.52-6.19-3,5.67a24.11,24.11,0,0,1-6.47-2.74l1-4.72-2.49,3.76a27.79,27.79,0,0,1-2.3-1.81l3.05-5.07-4.69,3.54a35.53,35.53,0,0,1-3.44-4.07l2.73-3.07-3.44,2c-.36-.54-.71-1.07-1-1.6l1.84-1.68-2.45.67a40.07,40.07,0,0,1-3.52-7.9c15.25,14.92,47.17,17.78,47.17,17.78A46.1,46.1,0,0,1,387.52,113.79Z" style="fill:#37474f"></path><path d="M429.45,131.1l-.82-2.61-.32,2.72a21.69,21.69,0,0,1-3.12,0l.26-4.5L423.66,131a20.51,20.51,0,0,1-4.59-1.2l.69-4.43-2.83,3.47a23.19,23.19,0,0,1-2.77-1.72l1.85-3.38-2.92,2.55a24.91,24.91,0,0,1-2-1.79l2.57-4.06-4.55,1.89c-.6-.72-1.19-1.5-1.78-2.35l2.17-1.86-2.84.86a54.1,54.1,0,0,1-5.21-10.69s19.78,17,36.58,20.18A24.43,24.43,0,0,1,429.45,131.1Z" style="fill:#455a64"></path><path d="M393.93,126.46l-2.93-2.9,1.73,4.11a18.38,18.38,0,0,1-2.79,2.14l-2.47-2.32,1.33,3a14.16,14.16,0,0,1-1.48.69l-2.74-4.09.78,4.73a17.71,17.71,0,0,1-4.94.55l-1.51-3.44-.17,3.32c-.77-.09-1.5-.21-2.21-.36L376,128.5l-.73,3a25.49,25.49,0,0,1-6.72-2.86c17.91-2.41,33.32-18.44,33.32-18.44C399.83,117.91,397,123.07,393.93,126.46Z" style="fill:#455a64"></path><path d="M410,121.18a6.7,6.7,0,1,1-5.18-8A6.7,6.7,0,0,1,410,121.18Z" style="fill:#FFC100"></path><path d="M410,121.18a6.7,6.7,0,1,1-5.18-8A6.7,6.7,0,0,1,410,121.18Z" style="opacity:0.4"></path><path d="M405.59,114.16a6.71,6.71,0,1,1-5.17-8A6.69,6.69,0,0,1,405.59,114.16Z" style="fill:#FFC100"></path><path d="M405.59,114.16a6.71,6.71,0,1,1-5.17-8A6.69,6.69,0,0,1,405.59,114.16Z" style="opacity:0.30000000000000004"></path><path d="M412.4,114.37a6.71,6.71,0,1,1-5.17-8A6.7,6.7,0,0,1,412.4,114.37Z" style="fill:#FFC100"></path><path d="M412.4,114.37a6.71,6.71,0,1,1-5.17-8A6.7,6.7,0,0,1,412.4,114.37Z" style="opacity:0.2"></path><path d="M150.19,138.81s.57,41-16.88,84.88C123.24,249,58.89,275.27,41.24,295.2H70.61s68.56-48.94,74.17-70.94c12.49-49,7.62-86.15,7.62-86.15Z" style="fill:#FFC100"></path><path d="M150.19,138.81s.57,41-16.88,84.88C123.24,249,58.89,275.27,41.24,295.2H70.61s68.56-48.94,74.17-70.94c12.49-49,7.62-86.15,7.62-86.15Z" style="opacity:0.30000000000000004"></path><path d="M90.84,279.93l-.67.52-3.48,0c-2.44-.05-4.89-.1-7.33-.22,2.44-.11,4.89-.17,7.33-.21C88.07,280,89.46,279.94,90.84,279.93Z" style="fill:#FFC100"></path><path d="M85.46,271.49c-1.21.06-2.44.09-3.65.14l-3.67.07c-1.58,0-3.15.05-4.73.06l.87-.54,3.86.06,3.67.07C83,271.4,84.25,271.43,85.46,271.49Z" style="fill:#FFC100"></path><path d="M77.22,273.37c-1.22.06-2.44.09-3.66.14l-3.08.06.63-.39,2.45.05C74.78,273.28,76,273.31,77.22,273.37Z" style="fill:#FFC100"></path><path d="M129.11,246.42l-.3.31c-1.46,0-2.91-.08-4.38-.15C126,246.5,127.55,246.47,129.11,246.42Z" style="fill:#FFC100"></path><path d="M133.81,241.35a5.72,5.72,0,0,0-.4.46l-1.1,0c-2.44,0-4.88-.09-7.32-.21,2.44-.11,4.88-.16,7.32-.21Z" style="fill:#FFC100"></path><path d="M146.21,218.37c0,.1,0,.2-.07.3-1.48,0-3-.07-4.45-.15C143.2,218.46,144.7,218.41,146.21,218.37Z" style="fill:#FFC100"></path><path d="M149.29,195.91c-1.22.06-2.44.09-3.66.14l-3.36.07c0-.14.07-.28.1-.41l3.26.07C146.85,195.82,148.07,195.85,149.29,195.91Z" style="fill:#FFC100"></path><path d="M152.68,175.48c0,.05,0,.11,0,.17l-2.18-.09Z" style="fill:#FFC100"></path><path d="M146.5,193.16c-1.17.06-2.35.09-3.52.13L143,193C144.19,193.07,145.35,193.1,146.5,193.16Z" style="fill:#FFC100"></path><path d="M128.66,104.71l7.5.07-7.37,2.77a29.59,29.59,0,0,0,2.54,9.6l7.87-1.4L132.82,120a28,28,0,0,0,2,3l4.68-1-3.2,2.88a40.85,40.85,0,0,0,5,4.84l4.3-2.9-3,3.92A63,63,0,0,0,154,137.6L137.44,79.46a48.61,48.61,0,0,0-6,11.17l3.11.73-3.7.9c-.43,1.27-.83,2.61-1.16,4l7.54,1.08L129,99.7A34.24,34.24,0,0,0,128.66,104.71Z" style="fill:#455a64"></path><path d="M111.49,128.13l3.48-2.55-2.5,4.07a23.06,23.06,0,0,0,4,4.35l4.6-5.14-2,7a24.24,24.24,0,0,0,3,1.63l3.12-3.75-1,4.61a30.92,30.92,0,0,0,5.81,1.4l3-7.15.18,7.47c1,.07,2.08.1,3.19.09l1.21-4.88,1.53,4.78a73.61,73.61,0,0,0,14.68-2.58L108,117.56A25.67,25.67,0,0,0,111.49,128.13Z" style="fill:#37474f"></path><path d="M153.76,137.59a85.88,85.88,0,0,0,14.43-11.48l-4.43-4.4,6.1,2.66a55.19,55.19,0,0,0,3.82-4.55L169.24,115l6.25,2.3c.9-1.35,1.7-2.68,2.42-4l-8.4-5.64,10.59,1a41.4,41.4,0,0,0,2.55-9.47h0l-11.34-5.72,11.76,1c0-.86,0-1.7,0-2.53l-6.56-1.38,6.44-1a47.79,47.79,0,0,0-.92-6.1L172.26,83l9-2.8a50.59,50.59,0,0,0-7.43-15.52Z" style="fill:#37474f"></path><path d="M172.55,135.29l-.69-5.66,3.14,5.06h0c.91-.23,1.83-.49,2.74-.77l-1.25-4.12,2.72,3.66c1.48-.48,3-1,4.44-1.63l-2.23-5.12,4.74,4a44,44,0,0,0,7.77-4.62l-5.32-7.2,7.64,5.29a29.33,29.33,0,0,0,4.8-5.49l-5.52-6,6.95,3.67a25.78,25.78,0,0,0,1.6-3.58l-8.83-6.9,10.12,1.9a32.84,32.84,0,0,0,.42-5.28l-7-2.22,6.95-.34A50,50,0,0,0,203.33,88s-20,37.08-49.57,49.59A92.64,92.64,0,0,0,172.55,135.29Z" style="fill:#455a64"></path><path d="M165.61,145.47l1.8-2.17-1.07,2.46c.7.27,1.38.51,2.06.71l1.65-3.07.08,3.52a22.85,22.85,0,0,0,3,.47l.9-5.55,1.38,5.64a22.24,22.24,0,0,0,6.27-1l.16-4.37,1.35,3.84a24,24,0,0,0,2.42-1.08L184,139.78l3.33,4.13a33.72,33.72,0,0,0,3.91-2.81l-1.72-3.29,2.57,2.55c.44-.39.85-.79,1.25-1.18l-1.25-1.88,2,1.13a36.72,36.72,0,0,0,4.82-6.15c-16.65,9.73-45.26,5.23-45.26,5.23A41.59,41.59,0,0,0,165.61,145.47Z" style="fill:#37474f"></path><path d="M125.05,151.44l1.29-2.11-.31,2.46a19.81,19.81,0,0,0,2.73.68l.76-4,.62,4.2a18.63,18.63,0,0,0,4.28,0l.37-4,1.72,3.66a20.72,20.72,0,0,0,2.81-.9l-.88-3.37,2,2.88a20,20,0,0,0,2.13-1.13l-1.35-4.12,3.57,2.65c.68-.5,1.37-1.06,2.07-1.67l-1.49-2.11,2.3,1.38a48.49,48.49,0,0,0,6.91-8.23s-21.06,10.54-36.5,9.67A22.24,22.24,0,0,0,125.05,151.44Z" style="fill:#455a64"></path><path d="M157.2,155.16l3.21-1.89L158,156.49a16.93,16.93,0,0,0,2,2.49l2.68-1.49-1.82,2.3a12.21,12.21,0,0,0,1.14.93l3.31-3-1.73,4a15.83,15.83,0,0,0,4.22,1.57l2.07-2.68-.57,2.94c.69.09,1.36.15,2,.17l1.21-2.82,0,2.83a23.44,23.44,0,0,0,6.51-1c-15.17-6.05-25.16-23.48-25.16-23.48C153.91,146.37,155.23,151.51,157.2,155.16Z" style="fill:#455a64"></path><path d="M144.25,147a6.06,6.06,0,1,0,6.28-5.83A6.07,6.07,0,0,0,144.25,147Z" style="fill:#FFC100"></path><path d="M144.25,147a6.06,6.06,0,1,0,6.28-5.83A6.07,6.07,0,0,0,144.25,147Z" style="opacity:0.4"></path><path d="M149.68,141.82A6.06,6.06,0,1,0,156,136,6.06,6.06,0,0,0,149.68,141.82Z" style="fill:#FFC100"></path><path d="M149.68,141.82A6.06,6.06,0,1,0,156,136,6.06,6.06,0,0,0,149.68,141.82Z" style="opacity:0.30000000000000004"></path><path d="M143.66,140.51a6.06,6.06,0,1,0,6.28-5.83A6.06,6.06,0,0,0,143.66,140.51Z" style="fill:#FFC100"></path><path d="M143.66,140.51a6.06,6.06,0,1,0,6.28-5.83A6.06,6.06,0,0,0,143.66,140.51Z" style="opacity:0.2"></path></g><g id="freepik--character-2--inject-23"><path d="M402.16,318.45C419.34,345,437.34,398.62,430.31,407c-7.83,9.28-32.47-28.29-31.21-29.64,1.07-1.14-4-26.36-7.81-48.49S397.92,311.9,402.16,318.45Z" style="fill:#c95f50"></path><path d="M429.1,408.26c-6.8,5.45-13.89,5.76-48.28,2.59-4.76-.44-16.25-38.26-11.14-38.05,6.43.26,31.33,2.66,33.13,3.07C418,379.29,433.72,404.57,429.1,408.26Z" style="fill:#c95f50"></path><path d="M382.64,376.31s-12.86-5.68-20.54-6.57c-10.29-1.2-19.67,2-23.51,3.58-8,3.3-25.18,16.82-22.14,22.44,2.74,5.08,19.57-9.63,19.57-9.63s-19.63,12.17-15.2,17.68,23-12.67,23-12.67-19.88,12.95-14.41,17.92c4.13,3.75,21.86-11.78,21.86-11.78s-17,11.25-12.92,15.29c4.51,4.47,21.78-8.83,21.78-8.83,12.11,8.52,21.36,7.62,27.87,6.2C389.56,409.59,382.64,376.31,382.64,376.31Z" style="fill:#c95f50"></path><path d="M342.53,381.49c-2.35,1.35-4.75,2.69-7,4.24s-4.4,3.18-6.48,4.93a46.16,46.16,0,0,0-7.42,7.59c4.23-4.69,12.12-10.37,14.35-11.92s4.37-3.21,6.6-4.76C342.65,381.53,342.59,381.46,342.53,381.49Z" style="fill:#263238"></path><path d="M348.28,389.44c-2.94,1.85-5.92,3.57-8.77,5.55s-5.37,4.09-8.06,6.25c-.21.17-.05.22.16.06,2.78-2.05,5.51-3.73,8.32-5.74s5.53-4.15,8.4-6.06C348.37,389.48,348.32,389.41,348.28,389.44Z" style="fill:#263238"></path><path d="M354.44,395.37a78.5,78.5,0,0,0-12.77,9.52c-.19.18,0,.23.23.06,4.18-3.24,7.44-5.82,12.63-9.42C354.61,395.48,354.54,395.32,354.44,395.37Z" style="fill:#263238"></path><path d="M415.88,382.82c-2.51-2.18-9.74-7.48-17.63-7.5-.09,0-.11.12,0,.13,6.37.93,15,5.56,17.57,7.47A.06.06,0,0,0,415.88,382.82Z" style="fill:#263238"></path><path d="M380.81,410.85c21.27,2,32.1,2.58,38.87,1.5l-2.7-10-6.15-22.83-17.89-66.32c-2.2,1.24-3.39,5.67-1.65,15.63,3.28,19,7.46,40.17,7.91,46.59-7.55-.83-24.4-2.41-29.53-2.62S376.06,410.41,380.81,410.85Z" style="opacity:0.1"></path><path d="M394.37,359.25l32.31,2S413.8,332,404.25,319.86c-9.95-12.64-15.94-12.07-13.83,9.13S394.37,359.25,394.37,359.25Z" style="fill:#FFC100"></path><path d="M390,322a4.65,4.65,0,0,0,.09-3.38C390,319.61,390,320.74,390,322Zm27.11,32.81c-.28.43-3.37,1.72-3.54,3.89a3,3,0,0,0,.5,1.82l4.21.27c.41-1.23.71-2.77,1.57-3.34.19-.13.08.66,0,1-.16.78-.34,1.63-.43,2.4l7.09.46c0-.11,0-.2,0-.3h0c-.61-1.35-3.06-6.84-6.37-13.6a2.1,2.1,0,0,0-.43.84c-.3,1.12.45,2.23.12,2.42s-.59-.43-1.33-.78c-1-.47-2.86-1-3.91-.17a5.23,5.23,0,0,0-1.39,3.85C413.87,356.23,417.54,354.14,417.12,354.79Zm2.77-.47a1.64,1.64,0,1,1,1.64,1.56A1.6,1.6,0,0,1,419.89,354.32Zm-28.59-17c.89,7.92,1.67,13.5,2.22,17.05a4.13,4.13,0,0,0,3.88-1.63c1-1.83-1.1-4.64-.53-5,.28-.18,1.05.52,1.32.79a10,10,0,0,1,.66.87,2.79,2.79,0,0,0,2.12.87c1.61-.21,3-3.56,2.15-6.14-.37-1.06-1.34-2.58-2.7-2.76-1.14-.14-2.15.74-2.38.43s.35-.63.6-1.42c.35-1.07.65-3-.31-3.9a5.15,5.15,0,0,0-4-.89c-2.59,1-.07,4.34-.77,4A26,26,0,0,0,391.3,337.3Zm3.08,5a1.64,1.64,0,1,1-1.33,1.8A1.59,1.59,0,0,1,394.38,342.3Zm6.29-10.93a3,3,0,0,0,2.43.44c.66-.29.9-.95,2.22-1.74.37-.22.55-.29.67-.21.3.21-.56,1.32-.45,2.57a3.52,3.52,0,0,0,2,2.7,4.21,4.21,0,0,0,5.24-1.95c-1.25-2.25-2.53-4.44-3.79-6.47a1.57,1.57,0,0,1-1.75-1.14,1.45,1.45,0,0,1,.22-1.23c-1.09-1.66-2.16-3.17-3.19-4.48-.48-.61-.95-1.19-1.41-1.73-1.54.93-2.57,2.42-2.29,3.44a2.71,2.71,0,0,0,1.58,1.65,10.73,10.73,0,0,1,1.06.31c.35.14,1.27.6,1.22.93-.12.65-3.5-.26-4.82,1.33C398.46,327.15,398.88,330.21,400.67,331.37Z" style="opacity:0.1"></path><path d="M396.14,353.63c.77-.05,14.19.35,24.56,1.38.06,0,0,.09,0,.09a181.81,181.81,0,0,1-24.55-1.38C396.09,353.71,396.09,353.63,396.14,353.63Z" style="fill:#263238"></path><path d="M390.42,329c2.12,21.34,3.95,30.27,3.95,30.27l18.82,1.18L395.94,312C391.26,309.77,389,314.68,390.42,329Z" style="opacity:0.1"></path><path d="M83.83,397.85c2.64,1.29,82,9.75,85.29,8.24.35-.17.57-3.68,2.54-12.66.1-.42,2.06-1.95,5.1-4.07,11.41-8,38.05-24.56,38.05-24.56l-36.63-38-41.78,34.4-10.87,8.95s-34,14.67-37.45,16.71S81.19,396.56,83.83,397.85Z" style="fill:#c95f50"></path><path d="M136,359.08l46.8,29.73s55.17-41.74,59.88-41.67,69.33,52.77,103.92,56c35.83,3.31,40.95-34.08,40.95-34.08l-51.22-16.61c-36.05-21.9-72.37-58.72-98.31-57.87C209.87,295.46,136,359.08,136,359.08Z" style="fill:#455a64"></path><path d="M148.59,353.66c7.92,4.82,5.71,3.33,13.57,8.24,3.85,2.4,23.23,14.42,26.45,17.26a.09.09,0,0,1-.1.15c-3.93-1.72-23-14.15-26.85-16.62-7.77-5.05-5.49-3.68-13.21-8.81A.13.13,0,0,1,148.59,353.66Z" style="fill:#263238"></path><path d="M192.56,377.86c10.33-7.61,44.17-32.36,45.54-33.27a17.7,17.7,0,0,1,3.48-2.16,3.45,3.45,0,0,1,3,.51c1.39.8,2.75,1.67,4.13,2.5l8.13,4.9c10.51,6.33,20.95,12.8,31.57,19,10.21,5.93,17.39,11.29,28.18,16.11A168.54,168.54,0,0,0,350,396.55c1.42.3,2.84.57,4.27.84a.08.08,0,0,1,0,.16,137.37,137.37,0,0,1-33-9.21c-10.72-4.35-17.81-9.41-27.85-15.15-10.4-5.94-20.62-12.22-30.84-18.48-5.4-3.3-10.78-6.63-16.19-9.9-1.23-.74-2.94-2.26-4.46-1.72a8.51,8.51,0,0,0-1.8,1.1l-2,1.4c-2.61,1.8-44,31.58-45.38,32.42C192.58,378.07,192.46,377.94,192.56,377.86Z" style="fill:#263238"></path><path d="M162.26,407.14s-46.89,0-46.92,0c-9.09,1.73-17.09,3.08-21.29,3.4H94a6.45,6.45,0,0,1-2.93-.13l-.07,0c-2.35-2.36-18.31-74.58-18-77.28s8-2.09,10.88.22,21.33,27.23,21.33,27.23l47,.48Z" style="fill:#c95f50"></path><path d="M356.07,339.86c-.88.23-21.93,17.06-22.84,19.59,0,0-102-3.46-113.75-3.37-19.54.15-20.07,2.75-96.38,2.81l10.17,49.6s72.68-2.11,103-1.45c26,.57,104.24,9.38,104.24,9.38,47.65,3.88,56.09-43.06,56.09-43.06S356.1,339.85,356.07,339.86Z" style="fill:#455a64"></path><path d="M134.58,359.87c1.64,7.78,1.28,5.53,2.83,13.33.76,3.82,5.72,28.92,5.8,32.61a.08.08,0,0,1-.16,0c-1.26-3.47-5.79-28.65-6.47-32.48-1.4-7.84-.92-5.6-2.23-13.45A.12.12,0,0,1,134.58,359.87Z" style="fill:#263238"></path><path d="M222.55,356c8.08,0,109.39,2.87,110.75,3.08.14,0,.07.34-.07.34-4.77-.15-103.48-2.29-110.67-2.1-5.15.13-94.27,1.61-99.4,1.65a.12.12,0,0,1,0-.23C132.31,357.76,221.47,356,222.55,356Z" style="fill:#263238"></path><path d="M176.25,399.25c16.26-.48,32.55-.41,48.81,0s32.66,1.33,49,2.64,32.54,3.15,48.73,5.38c7.68,1.05,19,2.22,27,1.44,20.55-2,33.11-12.94,46.21-26.87.1-.1.24.06.14.16-16.25,18.07-27.9,31.28-65.36,27.32-8-.84-16-2.08-24-3q-12.36-1.41-24.74-2.48c-16.36-1.42-32.75-2.49-49.16-3.1s-32.84-.77-49.26-.52-36.34,1.35-38.47,1.51c-.12,0-.16-.18,0-.19C152.83,400.9,160,399.74,176.25,399.25Z" style="fill:#263238"></path><path d="M382.73,321.71c4,.35,8-5.8,8.47-10.93,0-.37-.88-3.73-1.91-7.89-.62-2.53-1.24-5.36-1.62-8l-15.87,6.4a42.23,42.23,0,0,1,3.06,9.84,5.84,5.84,0,0,1,.05,1.09,1.2,1.2,0,0,0,0,.19C374.88,314.52,378.87,321.37,382.73,321.71Z" style="fill:#c95f50"></path><path d="M393.38,272.68c2.25,7-.36,24.6-5.28,29.2-7.14,6.66-19,7.47-24.68-1.14-5.53-8.36-1.95-30.58,3.57-34.78C375.11,259.79,390.06,262.36,393.38,272.68Z" style="fill:#c95f50"></path><path d="M392.41,269.14s4.08,4.29,4.61,6.8.2,12.19-3.92,18.4c-1.49,2.25-1.34,6.91-3.81,8.55s-13.83-4.77-14.63-6.7,1.14-8.22,1.52-10.84-2.68-3.11-3.49-2.66c-5.13,2.81-5.66,9.68-6.16,8.54s-2.15-4.65-2.27-7.17,4.26-10.18,4-12.19-3-.6-4.88-.89c-1.12-.18-.92-7,.59-8.18s4.85-.64,6.26-.76,3.11-2,6.88-2.09,8.31,1.9,10.15,2.59C390.21,263.63,392.41,269.14,392.41,269.14Z" style="fill:#263238"></path><path d="M368.35,287.69s4.21-6.35,7.08-4.86-.18,10.61-3.47,11.94a3.38,3.38,0,0,1-4.58-1.71Z" style="fill:#c95f50"></path><path d="M374.49,285.42a0,0,0,0,1,0,.09c-2.31,1-3.48,3.2-4.28,5.46a1.86,1.86,0,0,1,2.78-.58c.06,0,0,.14-.06.13a2.08,2.08,0,0,0-2.27.78,9.62,9.62,0,0,0-1.05,1.88c-.11.21-.48.11-.41-.13l0-.06C369.1,290,371.31,285.8,374.49,285.42Z" style="fill:#263238"></path><path d="M328.13,359.29l56.71,48.62s5.94-4.25,7.54-8.59c6.41-17.36,12.62-58.75,6.79-81.27-3.15-12.16-18.27-11.68-22.12-8.7-6.5,5-22.66,27.55-36.94,42.17C337.05,354.65,328.13,359.29,328.13,359.29Z" style="fill:#FFC100"></path><path d="M328.13,359.29l27.42,23.51,10.66,9.13,18.62,16s5.95-4.26,7.55-8.58c.58-1.56,1.14-3.3,1.71-5.22,1-3.38,2-7.28,2.85-11.51.06-.27.12-.55.17-.84q.52-2.56,1-5.3a223.72,223.72,0,0,0,3.08-26.25c.16-2.82.26-5.63.27-8.39,0-3.5-.05-6.92-.28-10.18-.15-2.24-.37-4.43-.67-6.51a64.52,64.52,0,0,0-1.36-7.08c-3.15-12.16-18.27-11.68-22.13-8.7-6.49,5-22.65,27.55-36.92,42.17C337.05,354.66,328.13,359.29,328.13,359.29Z" style="fill:#FFC100"></path><path d="M375.61,319.33c-.27.42-3.35,1.71-3.52,3.88-.15,2,1.92,3.42,2.83,3.7,2.19.7,1.81-3.87,3.44-4.94.2-.14.07.65,0,1-.34,1.58-.73,3.46-.3,4.4.64,1.43,3.84,2.37,5.7.83a3.56,3.56,0,0,0,1.25-3.12c-.21-1.23-1.32-2.09-1.08-2.37.08-.1.28-.08.69,0,1.48.44,1.87,1,2.59,1.12a3,3,0,0,0,2.24-1c1.44-1.57,1.08-4.64-.34-5.67-1.69-1.21-4.74.52-5-.08-.14-.31.65-1,.95-1.22s.63-.34.94-.55a2.76,2.76,0,0,0,1.13-2c0-1.61-3.15-3.48-5.82-2.9-1.1.24-2.73,1-3.06,2.34-.29,1.11.45,2.22.12,2.41s-.58-.43-1.33-.78c-1-.47-2.87-1-3.9-.17a5.15,5.15,0,0,0-1.39,3.85C372.37,320.76,376,318.67,375.61,319.33Zm2.79-.48a1.63,1.63,0,1,1,1.62,1.56A1.58,1.58,0,0,1,378.4,318.85Zm-38.27,41.44c-.27.43-3.35,1.72-3.52,3.9-.15,1.94,1.92,3.41,2.83,3.69,2.2.71,1.82-3.87,3.44-4.95.2-.12.07.66,0,1-.32,1.58-.72,3.45-.3,4.4.64,1.42,3.85,2.38,5.7.82a3.54,3.54,0,0,0,1.25-3.11c-.21-1.23-1.32-2.09-1.08-2.37.09-.1.28-.08.69,0,1.48.43,1.88,1,2.59,1.12a2.86,2.86,0,0,0,2.24-1c1.44-1.57,1.08-4.64-.34-5.65-1.68-1.21-4.74.5-5-.09-.15-.31.64-1,.95-1.21a8.46,8.46,0,0,1,.95-.57,2.78,2.78,0,0,0,1.11-2c0-1.62-3.15-3.48-5.82-2.9-1.1.23-2.72,1-3.06,2.33-.29,1.12.45,2.24.12,2.42s-.58-.43-1.33-.78c-1-.47-2.85-1-3.9-.17a5.13,5.13,0,0,0-1.39,3.85C336.89,361.73,340.56,359.65,340.13,360.29Zm2.79-.46a1.63,1.63,0,1,1,1.63,1.55A1.6,1.6,0,0,1,342.92,359.83Zm42.87-11.05a3.57,3.57,0,0,0,3.25.84c1.2-.36,1.91-1.56,2.23-1.36.1.08.11.27,0,.7-.25,1.51-.77,2-.8,2.71a2.94,2.94,0,0,0,1.31,2.09c1.74,1.24,4.74.49,5.58-1,1-1.83-1.1-4.64-.53-5,.28-.18,1.05.52,1.32.79a10,10,0,0,1,.66.87,2.79,2.79,0,0,0,2.12.87.71.71,0,0,0,.24-.06c.16-2.82.26-5.63.27-8.39a2.39,2.39,0,0,0-1.06-.45c-1.14-.14-2.15.74-2.38.43s.35-.63.6-1.42c.35-1.07.65-3-.31-3.9a5.15,5.15,0,0,0-4-.89c-2.59,1-.07,4.34-.77,4-.45-.22-2.12-3.12-4.29-3-1.95.11-3.15,2.34-3.32,3.28-.43,2.27,4.08,1.31,5.34,2.8.15.17-.64.16-1,.12-1.63-.13-3.54-.29-4.42.25C384.57,343.83,384,347.13,385.79,348.78Zm8.59-6.48a1.64,1.64,0,1,1-1.33,1.8A1.59,1.59,0,0,1,394.38,342.3Zm-37.61,3.51a2.76,2.76,0,0,0,2.11-.87c.26-.28.3-.49.68-.87s1-1,1.32-.79c.56.34-1.53,3.15-.53,5,.83,1.55,3.82,2.28,5.57,1.05.16-.13,1.35-1,1.3-2.1,0-.72-.54-1.2-.79-2.71-.07-.43-.07-.62.05-.69.31-.2,1,1,2.22,1.37a3.52,3.52,0,0,0,3.25-.86c1.76-1.65,1.22-4.95-.11-5.76-.89-.54-2.8-.38-4.42-.25-.33,0-1.12.06-1-.12,1.27-1.48,5.76-.53,5.34-2.8-.17-.94-1.36-3.17-3.32-3.27-2.16-.11-3.83,2.8-4.29,3-.7.33,1.82-3.05-.76-4a5.23,5.23,0,0,0-4,.9c-1,.93-.65,2.82-.32,3.9.26.78.77,1.21.61,1.42s-1.24-.57-2.38-.43c-1.35.17-2.32,1.69-2.7,2.75C353.71,342.25,355.17,345.61,356.77,345.81Zm4.84-6.55a1.55,1.55,0,1,1,1.34,1.82A1.59,1.59,0,0,1,361.61,339.26Zm4.39,50.1c0-.35-.09-1.14.09-1,1.53,1.22.73,5.74,3,5.25.94-.21,3.13-1.47,3.16-3.42,0-2.18-2.91-3.75-3.15-4.2-.36-.69,3.1,1.71,4-.9a5.19,5.19,0,0,0-1-4c-1-.93-2.85-.56-3.91-.19-.76.28-1.18.81-1.4.66s.55-1.27.35-2.4c-.21-1.34-1.76-2.27-2.83-2.61-2.61-.82-5.92.74-6.06,2.35a2.72,2.72,0,0,0,.92,2.08,10.72,10.72,0,0,1,.91.64c.27.27,1,1,.82,1.3-.32.58-3.19-1.42-5-.37a1.79,1.79,0,0,0-.28.2l10.66,9.13A22.81,22.81,0,0,0,366,389.36Zm-1.42-2.7a1.55,1.55,0,1,1,1.76-1.39A1.59,1.59,0,0,1,364.58,386.66Zm21.53,3.45a2.81,2.81,0,0,0,2.11-.87c.26-.29.29-.49.66-.87s1-1,1.33-.79c.56.34-1.53,3.15-.54,5,.67,1.24,2.74,1.95,4.42,1.55,1-3.38,2-7.28,2.85-11.51h-.19c-.34,0-1.13.06-1-.12a2.75,2.75,0,0,1,1.34-.73q.52-2.56,1-5.3a2,2,0,0,0-.34,0c-2.17-.1-3.83,2.8-4.29,3-.7.34,1.82-3-.77-4a5.2,5.2,0,0,0-4,.89c-1,.94-.66,2.82-.31,3.9.25.79.77,1.22.6,1.43s-1.24-.58-2.38-.44c-1.34.18-2.33,1.69-2.7,2.75C383.05,386.55,384.5,389.9,386.11,390.11Zm4.83-6.55a1.55,1.55,0,1,1,1.34,1.82A1.61,1.61,0,0,1,390.94,383.56Zm-23.79-22.51c.05.19.42,1.61,1.46,2,.69.24,1.31-.07,2.81.27.42.09.6.17.63.29.07.37-1.31.59-2.1,1.56a3.54,3.54,0,0,0-.4,3.33c.88,2.26,4.14,3,5.38,2,.84-.62,1.39-2.45,1.86-4,.11-.32.39-1.07.49-.87.91,1.73-1.64,5.56.62,6,.94.18,3.45-.1,4.27-1.88.9-2-1.18-4.59-1.21-5.11-.06-.77,2.16,2.82,4,.78a5.26,5.26,0,0,0,.64-4c-.52-1.24-2.38-1.66-3.51-1.74-.82-.06-1.41.27-1.55,0s1-.93,1.29-2.05c.34-1.31-.71-2.79-1.56-3.52-2.06-1.8-5.72-1.7-6.5-.27a2.78,2.78,0,0,0,0,2.28,10.75,10.75,0,0,1,.57.95c.14.35.51,1.32.25,1.52-.53.38-2.37-2.59-4.43-2.35C368.44,356.45,366.65,359,367.15,361.05Zm8.74.28a1.64,1.64,0,1,1,.68,2.15A1.6,1.6,0,0,1,375.89,361.33Zm24.78-30a4.52,4.52,0,0,0,.53.27c-.15-2.24-.37-4.43-.67-6.51a2.37,2.37,0,0,0-.94.66C398.46,327.15,398.88,330.21,400.67,331.37Z" style="opacity:0.1"></path><path d="M386.71,320.81c14.74,27.92,27.9,83,20.15,90.65-8.63,8.56-31.65-28.38-30.28-29.61,1.17-1.05.23-29.3-1.63-51.68S383.06,313.9,386.71,320.81Z" style="fill:#c95f50"></path><path d="M406.36,412c-6.41,5.9-13.47,6.7-48,5.89-4.78-.11-18.83-37.05-13.72-37.2,6.44-.18,31.44.52,33.27.8C393.28,383.83,410.71,408,406.36,412Z" style="fill:#c95f50"></path><path d="M357.82,383.28s-13.23-4.79-20.95-5.15c-10.35-.49-19.48,3.35-23.21,5.19-7.79,3.84-24,18.51-20.55,23.9C296.2,412.1,312,396.28,312,396.28S293.23,409.76,298,415s22.06-14.22,22.06-14.22S301.14,415,306.94,419.6c4.38,3.46,21-13.25,21-13.25s-16.2,12.4-11.85,16.15c4.81,4.14,21.13-10.32,21.13-10.32,12.66,7.67,21.83,6.14,28.23,4.28C367,416,357.82,383.28,357.82,383.28Z" style="fill:#c95f50"></path><path d="M318.16,391.2c-2.26,1.5-4.56,3-6.68,4.71s-4.17,3.47-6.12,5.36a45.85,45.85,0,0,0-6.89,8.08c3.9-5,11.38-11.18,13.5-12.88s4.14-3.5,6.26-5.19A.05.05,0,0,0,318.16,391.2Z" style="fill:#263238"></path><path d="M324.44,398.73c-2.81,2-5.66,4-8.37,6.15s-5.08,4.44-7.62,6.78c-.19.18,0,.23.17,0,2.64-2.23,5.24-4.1,7.9-6.3s5.24-4.52,8-6.61C324.53,398.76,324.48,398.7,324.44,398.73Z" style="fill:#263238"></path><path d="M331,404.23a77.1,77.1,0,0,0-12.08,10.37c-.19.19,0,.23.23,0,3.95-3.53,7-6.32,11.95-10.26C331.16,404.32,331.08,404.17,331,404.23Z" style="fill:#263238"></path><path d="M391.42,387.49c-2.65-2-10.23-6.79-18.1-6.27-.09,0-.1.13,0,.13,6.42.49,15.31,4.53,18,6.25A.07.07,0,0,0,391.42,387.49Z" style="fill:#263238"></path><path d="M374.76,359l31.91,5.54S397,334,388.85,321c-8.53-13.65-14.54-13.73-14.74,7.57S374.76,359,374.76,359Z" style="fill:#FFC100"></path><path d="M374.15,326.54a4,4,0,0,0,.77.37c2.19.7,1.81-3.87,3.44-4.94.2-.14.07.65,0,1-.34,1.58-.73,3.46-.3,4.4.64,1.43,3.84,2.37,5.7.83a3.56,3.56,0,0,0,1.25-3.12c-.21-1.23-1.32-2.09-1.08-2.37.08-.1.28-.08.69,0,1.48.44,1.87,1,2.59,1.12a3,3,0,0,0,2.24-1,3.58,3.58,0,0,0,.29-.39c-.29-.52-.6-1-.89-1.49-1-1.52-1.87-2.89-2.77-4.06-1,.2-1.85.49-2,.19s.65-1,.95-1.22l.14-.1c-2.36-2.88-4.43-4.37-6.13-4.26a2.4,2.4,0,0,0-.82,1.26c-.29,1.11.45,2.22.12,2.41s-.58-.43-1.33-.78l-.89-.35a19.46,19.46,0,0,0-1.42,5.31c.63-.13,1-.27.89,0a6.23,6.23,0,0,1-1,.71A61.78,61.78,0,0,0,374.15,326.54Zm4.25-7.69a1.63,1.63,0,1,1,1.62,1.56A1.58,1.58,0,0,1,378.4,318.85Zm7.39,29.93a3.57,3.57,0,0,0,3.25.84c1.2-.36,1.91-1.56,2.23-1.36.1.08.11.27,0,.7-.25,1.51-.77,2-.8,2.71a2.94,2.94,0,0,0,1.31,2.09c1.74,1.24,4.74.49,5.58-1,1-1.83-1.1-4.64-.53-5,.28-.18,1.05.52,1.32.79a10,10,0,0,1,.66.87,2.79,2.79,0,0,0,2.12.87,1.66,1.66,0,0,0,.7-.3c-.94-2.6-2-5.38-3.09-8.2-.26.1-.46.14-.54,0s.07-.35.27-.71c-.72-1.85-1.48-3.7-2.26-5.53a3.81,3.81,0,0,0-1.71,0c-2.59,1-.07,4.34-.77,4-.45-.22-2.12-3.12-4.29-3-1.95.11-3.15,2.34-3.32,3.28-.43,2.27,4.08,1.31,5.34,2.8.15.17-.64.16-1,.12-1.63-.13-3.54-.29-4.42.25C384.57,343.83,384,347.13,385.79,348.78Zm8.59-6.48a1.64,1.64,0,1,1-1.33,1.8A1.59,1.59,0,0,1,394.38,342.3ZM373.8,356.13a10.75,10.75,0,0,1,.57.95,4.32,4.32,0,0,1,.32,1.06.75.75,0,0,1,0,.2c0,.47.05.7.05.7l10.5,1.82a5,5,0,0,0-3.16-1.2c-.82-.06-1.41.27-1.55,0s1-.93,1.29-2.05c.34-1.31-.71-2.79-1.56-3.52a5.69,5.69,0,0,0-5.86-.88,1.64,1.64,0,0,0-.64.61A2.78,2.78,0,0,0,373.8,356.13Z" style="opacity:0.1"></path><path d="M377.13,353.65c.77,0,14.07,1.89,24.27,4a0,0,0,0,1,0,.09,180.74,180.74,0,0,1-24.26-4S377.08,353.65,377.13,353.65Z" style="fill:#263238"></path><path d="M372.22,334.93c0-.07.1-.09.12,0a26.54,26.54,0,0,1,1,4c0-.64,0-1.28,0-1.91,0-2.06,0-4.11,0-6.16a.06.06,0,0,1,.12,0c.27,3.58.7,7.14.86,10.73s.34,7.16.45,10.75c.06,2,0,4.42,0,6.39,1,.31,2.32.47,3.39.78.1,0,0,.18-.06.17-1.16-.18-2.58-.18-3.79-.49-.15,0-.81-12.81-.94-18.89C372.92,338.53,372.53,336.74,372.22,334.93Z" style="fill:#263238"></path><path d="M397.83,338c0-.08-.14-.05-.13,0a29,29,0,0,0,.86,4.42c-.28-.63-.54-1.27-.82-1.9-.91-2-1.85-4-2.75-6.07a.07.07,0,0,0-.12.05c1.33,3.64,2.51,7.35,3.95,10.95s6.29,17,7.12,19c0,0-2.17-.5-3.58-.8-.11,0,0,.23.11.28a14.67,14.67,0,0,0,4.64,1.25c.17,0-5.37-15.35-8-21.4C398.76,341.87,398.33,339.92,397.83,338Z" style="fill:#263238"></path></g><g id="freepik--character-1--inject-23"><path d="M331.73,338.47c-3.49,9.07-18.12,44.39-21.39,46.9-3.9,3-26.11,1.07-26.79-2.93-1.77-10.36,28.51-45,41.61-54.5C331.57,323.3,337.57,323.28,331.73,338.47Z" style="fill:#eb9481"></path><path d="M332,382.19c2.81,2.24-5.43,28.67-10.44,27-18.43-6.14-34.41-18.22-36.85-22.49a9.71,9.71,0,0,1,6.81-14.13C301.16,370.65,329.24,380,332,382.19Z" style="fill:#eb9481"></path><path d="M322.45,380.33s24-2.28,33.19,1.11c4.63,1.7,22.74,12,20.35,16.46-2.17,4-7.71-.41-7.71-.41s6.51,4.28,3.14,7.62S361.35,402,361.35,402s7.23,4.06,3.29,7.28c-3.43,2.79-11.9-3.84-11.9-3.84s8.05,3.43,4.83,6.64C354,415.61,340,407.26,340,407.26c-9.86,5.84-15.28,3.31-22.51.64C316.33,407.46,322.45,380.33,322.45,380.33Z" style="fill:#eb9481"></path><path d="M363.38,403.45,361.73,402a37,37,0,0,0-3.3-2.7c-1.14-.79-2.31-1.53-3.5-2.24s-2.61-1.36-3.85-2.14a.08.08,0,1,0-.08.14,36.41,36.41,0,0,1,3.56,2.47c1.15.83,2.29,1.68,3.43,2.53s2.27,1.57,3.41,2.37c.56.39,1.11.82,1.66,1.24a12,12,0,0,0,1.58,1.17c.06,0,.11-.05.08-.1A10.29,10.29,0,0,0,363.38,403.45Z" style="fill:#263238"></path><path d="M369.62,398.41a57.41,57.41,0,0,0-6-5.14,39.7,39.7,0,0,0-6.85-4,.08.08,0,0,0-.08.14c2.14,1.55,4.31,3.08,6.47,4.61,1.06.74,5.77,4.28,6.31,4.59C369.58,398.7,369.7,398.51,369.62,398.41Z" style="fill:#263238"></path><path d="M357.63,408.35a54.71,54.71,0,0,0-5.74-4.73,51.08,51.08,0,0,0-6.83-3.37c-.08,0-.16.09-.08.14,2.18,1.29,4.38,2.54,6.5,3.93,1,.68,5,3.63,6,4.19C357.6,408.56,357.7,408.42,357.63,408.35Z" style="fill:#263238"></path><path d="M350.19,330.42c22.24,30.47,43,76.44,46.94,85.76,2.68,6.33-31.18,19.72-32.35,15.16-1.5-5.85-19.26-65.56-25.56-92.77C335.75,323.57,345.94,324.6,350.19,330.42Z" style="fill:#eb9481"></path><path d="M370.7,443.18c-5.51-2.51-5.92-11.84-5.92-11.84l30.51-18.92c2.44,6.37,9.45,12.7,17,14.59,8.51,2.15,17.17,5.48,17.75,6.37,1.12,1.7-1,4.35-7.09,4.26s-17.89-2.31-18.63-2.26a5.06,5.06,0,0,0-.72.2h0c-.27.19-7,7.6-10.19,9.81-1.95,1.34-9.67,1.11-14.17.76C372,445.58,371.59,443.84,370.7,443.18Z" style="fill:#eb9481"></path><path d="M393.4,430.76s14.5-2.94,17.32-1.72,20.91,6,22.06,7.68-1,4.35-7.1,4.26-17.88-2.31-18.63-2.26-12.92,4.69-14.17,4.77S393.4,430.76,393.4,430.76Z" style="fill:#eb9481"></path><path d="M401.33,428c1.62,0,3.24.13,4.86.23.81.06,1.61.13,2.42.22.41,0,.81.08,1.22.14l.62.1c.21.05.44.12.62.18,3.08.94,6.18,1.9,9.26,2.87s6.16,2,9.24,3.05a10.14,10.14,0,0,1,2.22,1.14,4.59,4.59,0,0,1,.95.87,2,2,0,0,1,.51,1.23,1.73,1.73,0,0,1-.52,1.22,3.77,3.77,0,0,1-1,.71,8.85,8.85,0,0,1-2.33.72,10.37,10.37,0,0,0,2.23-.92,3.51,3.51,0,0,0,.89-.73,1.3,1.3,0,0,0,.35-1,2.58,2.58,0,0,0-1.34-1.67,10.1,10.1,0,0,0-2.14-1c-3.08-.92-6.19-1.87-9.28-2.85s-6.16-2-9.22-3.08a12,12,0,0,0-2.31-.5c-.79-.13-1.59-.23-2.39-.34Z" style="fill:#263238"></path><path d="M391.45,433.47s15.91-3.16,18.73-1.93,20.9,6,22.06,7.68-1,4.35-7.1,4.26-17.88-2.32-18.63-2.27-12.92,4.69-14.18,4.78S391.45,433.47,391.45,433.47Z" style="fill:#eb9481"></path><path d="M398.91,429.77c2,.13,4,.34,5.94.55,1,.12,2,.25,3,.4.49.08,1,.16,1.48.26a10.27,10.27,0,0,1,1.47.4c3.78,1.2,7.57,2.41,11.34,3.66l5.65,1.9,1.41.49a12.65,12.65,0,0,1,1.42.56,6.3,6.3,0,0,1,1.33.86,2.79,2.79,0,0,1,.92,1.41,1.57,1.57,0,0,1-.09.91,2.17,2.17,0,0,1-.5.71,4.79,4.79,0,0,1-1.36.82,14.5,14.5,0,0,1-2.92.78,17.34,17.34,0,0,1-6-.1,18.47,18.47,0,0,0,5.89-.31,13.62,13.62,0,0,0,2.78-.87,3.93,3.93,0,0,0,1.16-.75,1.08,1.08,0,0,0,.37-1.05,2.14,2.14,0,0,0-.74-1,6.18,6.18,0,0,0-1.19-.72c-.85-.38-1.84-.65-2.77-1l-5.66-1.85c-3.77-1.25-7.54-2.49-11.29-3.83a10.12,10.12,0,0,0-1.39-.43c-.47-.11-1-.22-1.44-.31-1-.19-1.95-.36-2.93-.53Z" style="fill:#263238"></path><path d="M391.47,433s14.45.48,17.08,1.62,15.18,3.63,16.25,5.19-.95,4.05-6.61,4-12.36-.2-13.06-.15l-12.84,1C391.13,444.69,391.47,433,391.47,433Z" style="fill:#eb9481"></path><path d="M395.36,431.89c2.55.25,5.09.54,7.63.82l3.81.45,1,.12a7.92,7.92,0,0,1,1,.19c.62.16,1.24.34,1.86.52,2.45.74,4.89,1.54,7.3,2.42,1.2.44,2.4.89,3.59,1.37.6.24,1.19.49,1.78.75a11.6,11.6,0,0,1,1.78.92,1.49,1.49,0,0,1,.37,2.22,4.76,4.76,0,0,1-1.6,1.35,8.3,8.3,0,0,1-3.86,1.05c-2.57,0-5.12,0-7.69,0s-5.14-.05-7.65-.11c-1.26,0-2.55.11-3.82.17s-2.56.1-3.84.11c2.53-.42,5.06-.75,7.62-1l7.7,0c2.55,0,5.12,0,7.66-.06a7.59,7.59,0,0,0,3.48-.92,4.1,4.1,0,0,0,1.33-1.08.7.7,0,0,0-.17-1.11,11.84,11.84,0,0,0-1.63-.85c-.57-.26-1.16-.51-1.75-.75-1.18-.49-2.37-.94-3.56-1.39-2.4-.88-4.79-1.78-7.22-2.57-.6-.19-1.21-.38-1.82-.55a13.75,13.75,0,0,0-1.85-.35l-3.8-.58Z" style="fill:#263238"></path><path d="M323.9,400.83l3.43,49.87s-44.64,1.79-78.49-14.33c-30.93-14.74-15.52-39,9.42-40.48C280.57,394.55,319.15,400.12,323.9,400.83Z" style="fill:#eb9481"></path><path d="M292.54,396.6c-3.86-.32-15.4-1-16.36-.66s-17.42,17.46-18.39,21.48,4.21,23.24,5.11,24.51,9.48,12.55,64.43,8.76l-3.43-49.76S300.67,397.29,292.54,396.6Z" style="fill:#FFC100"></path><path d="M352.21,449.54c-8.54,3.09-24.74,1.68-26.81,1.6-2.08.08-18.27,1.49-26.82-1.6-15.54-5.6-20.47-19.46-19.77-28.26C280,406.85,294.41,391,294.41,391h62s11.21,19.07,12.37,33.51C369.47,433.31,367.75,443.94,352.21,449.54Z" style="fill:#FFC100"></path><path d="M358,394.66,294.41,391s14-45.81,33.17-63.42c8.82-8.09,18.49-3.43,21.9,4.51C360.25,357.21,358,394.66,358,394.66Z" style="fill:#FFC100"></path><path d="M328.83,326.53c-2.16,2.09-8.77,16.46-9.52,19.53s10.81,17.53,15.91,18.3c2.8.42,17.95-11.16,18.28-13.36s-3.49-18.11-6.89-23.33S333.67,321.86,328.83,326.53Z" style="fill:#eb9481"></path><path d="M344,329.22c-.82,1.51-6.75,5.56-11.59,3.8-2.49-.91.34-9.75.34-9.75l.09-.69,1.23-9.64,14.75-3.28S344.22,328.79,344,329.22Z" style="fill:#eb9481"></path><path d="M348.81,309.66s-1,4.34-2.16,8.93c-4.95,4.37-10.83,4.55-13.9,4.58l1.31-10.23Z" style="fill:#263238"></path><path d="M327,293.93c-8.47,16.18.14,23.22,3.76,24.9,3.24,1.51,14.17,6.89,24.27-8.33s5.25-24.28-1.8-28.45S335.44,277.74,327,293.93Z" style="fill:#eb9481"></path><path d="M353,314.77c-3.27,2-9.4,5-14.1,3-9.08-3.94-7.77-17.85-7.77-17.85s-5-1.64.62-11.58c0,0,.75-10.94,15-9.8s15.5,13.11,15.5,13.11S367.15,306.22,353,314.77Z" style="fill:#263238"></path><path d="M327.51,300.11s5.45-4.45,7.58-2.35-3.07,9.31-6.34,9.57a3.12,3.12,0,0,1-3.57-2.75Z" style="fill:#eb9481"></path><path d="M333.55,299.79a0,0,0,0,1,0,.08c-2.31.26-3.94,1.87-5.27,3.64a1.73,1.73,0,0,1,2.61.25.07.07,0,0,1-.09.1,1.92,1.92,0,0,0-2.22.07,8.87,8.87,0,0,0-1.44,1.37c-.15.16-.45,0-.32-.23l0-.05C327.53,302.37,330.64,299.25,333.55,299.79Z" style="fill:#263238"></path><path d="M329.88,292.14a32.91,32.91,0,0,0-3,7.37c-.61,2.65.55,4.52.21,6.4s-2.13,3.4-2.5,4.71c-.49,1.75,1.52,1.78,1.52,1.78s-1.37-.33-1-1.42c.28-.89,3-2.65,3.58-5.34s.05-3.95.6-5.54a8.49,8.49,0,0,1,1.37-2Z" style="fill:#263238"></path><path d="M350.51,318.23c-4.1,1.89-9.61-2.28-3.41-6.38C352.89,308,356.54,315.46,350.51,318.23Z" style="fill:#FFC100"></path><path d="M348.69,314c-2.35.16-7.82,11.25-1.71,19.06s17.92,4.35,16.6-6.42C362.74,319.85,353.65,313.67,348.69,314Z" style="fill:#263238"></path><path d="M357.61,336.92a13.66,13.66,0,0,0,6.67-6.1,8.12,8.12,0,0,0-.12-8.2,16.65,16.65,0,0,0-6.59-6,26,26,0,0,0-4.27-1.82,12.69,12.69,0,0,0-4.61-.81,11.19,11.19,0,0,1,4.82,0,20.62,20.62,0,0,1,4.66,1.44,16.12,16.12,0,0,1,7.51,6.31,9.46,9.46,0,0,1,1.31,4.93,9.62,9.62,0,0,1-1.52,4.81A12.16,12.16,0,0,1,357.61,336.92Z" style="fill:#263238"></path></g><g id="freepik--Hearts--inject-23"><path d="M345.9,235a5.92,5.92,0,0,1-1.53,2.89,5.92,5.92,0,0,1-3-1.38c-.93-.93-1-2.26-.2-2.81,1.13-.8,2.18,1.27,2.18,1.27s-.41-2.29,1-2.33C345.32,232.6,346.08,233.69,345.9,235Z" style="fill:#FFC100"></path><path d="M361.34,268.79a10.12,10.12,0,0,1-4.21,3.61,10.07,10.07,0,0,1-3.83-4c-.89-2.05-.15-4.18,1.44-4.57,2.27-.57,2.65,3.36,2.65,3.36s.77-3.87,3-3.08C361.91,264.64,362.43,266.84,361.34,268.79Z" style="fill:#FFC100"></path><path d="M352.94,254c-3.72,3.64-9.82,4.44-9.82,4.44s-4.28-4.42-4.92-9.58c-.53-4.31,2-7.87,5.17-7.73,4.55.19,3.1,7.71,3.1,7.71s3.56-6.78,7.24-4.1C356.27,246.56,356,250.93,352.94,254Z" style="fill:#FFC100"></path></g><g id="freepik--Drink--inject-23"><path d="M206.42,446h24.21c1.14,0,0-39.84,0-43.92S222,385,222,382.67s0-22.85,0-22.85H215.1s0,20.54,0,22.85-8.64,15.33-8.65,19.39S205.28,446,206.42,446Z" style="fill:#263238"></path><rect x="207.35" y="410.69" width="14.26" height="24.29" transform="translate(428.77 845.76) rotate(-179.97)" style="fill:#dbdbdb"></rect><path d="M215.09,382.67a7.94,7.94,0,0,1-.87,2.47c.43,1.52,1.6,5.39,4.21,5.6s4.59-5.33,4.59-5.33h0a9.19,9.19,0,0,1-1-2.74c0-2.29,0-22.84,0-22.84h-6.92S215.1,380.36,215.09,382.67Z" style="fill:#ebebeb"></path><path d="M217.45,387.55a1.12,1.12,0,1,0,1.45-.67A1.13,1.13,0,0,0,217.45,387.55Z" style="fill:#263238"></path><rect x="215.1" y="353.35" width="6.74" height="3.53" transform="translate(436.78 710.33) rotate(-179.97)" style="fill:#FFC100"></rect><rect x="215.1" y="353.35" width="6.74" height="3.53" transform="translate(436.78 710.33) rotate(-179.97)" style="opacity:0.2"></rect><rect x="216.17" y="356.88" width="4.61" height="2.79" transform="translate(436.79 716.64) rotate(-179.97)" style="fill:#FFC100"></rect><rect x="216.17" y="356.88" width="4.61" height="2.79" transform="translate(436.79 716.64) rotate(-179.97)" style="opacity:0.2"></rect><polygon points="216.17 357.5 220.78 357.9 220.78 356.88 216.17 356.88 216.17 357.5" style="opacity:0.2"></polygon><rect x="214.49" y="357.37" width="8.08" height="2.84" transform="translate(436.9 717.67) rotate(-179.97)" style="fill:#263238"></rect><path d="M236.43,418.21V444l-9.21,2h20.23l-9.2-2.05V418.2c5.09-.38,9.36-3.78,9.88-10.81a42.45,42.45,0,0,0-2.14-15.1H228.6a42.48,42.48,0,0,0-2.16,15.1C227,414.46,231.29,417.87,236.43,418.21Z" style="fill:#ebebeb;opacity:0.5"></path><path d="M228.15,407c.47,6.3,4.5,9.14,9.13,9.14s8.67-2.83,9.14-9.13a26.29,26.29,0,0,0,0-3.32H228.14A26.28,26.28,0,0,0,228.15,407Z" style="fill:#FFC100"></path><path d="M243.41,392.29H241.5s3.62,10.42,2.67,15.7-3.18,6.51-3.18,6.51,4.11-1.08,4.78-7.5C246.48,400.21,243.41,392.29,243.41,392.29Z" style="fill:#fff;opacity:0.5"></path><path d="M181,418.21,181,444l-9.2,2h20.23l-9.2-2.05V418.2c5.09-.38,9.36-3.78,9.88-10.81a42.7,42.7,0,0,0-2.14-15.1H173.2a42.33,42.33,0,0,0-2.15,15.1C171.56,414.46,175.9,417.87,181,418.21Z" style="fill:#ebebeb;opacity:0.5"></path><path d="M172.76,407c.46,6.3,4.5,9.14,9.13,9.14s8.67-2.83,9.13-9.13a24.55,24.55,0,0,0,0-3.32H172.75A26.28,26.28,0,0,0,172.76,407Z" style="fill:#FFC100"></path><path d="M188,392.29h-1.91s3.62,10.42,2.67,15.7-3.18,6.51-3.18,6.51,4.11-1.08,4.78-7.5C191.09,400.21,188,392.29,188,392.29Z" style="fill:#fff;opacity:0.5"></path><path d="M252.19,447c-6.46,0-31.85-7.1-36.95-7.1s-16.85,4.33-22.28,4.33-13.41-.67-19.73.66-17.07,1.28-17.07,1.28" style="fill:#fff"></path><path d="M252.19,447a38.45,38.45,0,0,1-6.05-.64c-2-.33-4-.71-6-1.1l-11.9-2.53c-4-.82-7.93-1.79-11.89-2.29a19.44,19.44,0,0,0-5.88.61c-2,.42-3.92.95-5.89,1.43s-3.94,1-5.94,1.41a27.07,27.07,0,0,1-6.12.78c-4.07,0-8.11-.29-12.15-.2a48.23,48.23,0,0,0-6,.5,55.2,55.2,0,0,1-6,.85,120.56,120.56,0,0,1-12.17.35c4.05-.11,8.11-.31,12.13-.77,2-.23,4-.57,6-1a46.06,46.06,0,0,1,6.09-.64c4.07-.22,8.14,0,12.18,0a26.61,26.61,0,0,0,5.91-.81c2-.43,3.93-.94,5.89-1.45s3.94-1,5.94-1.41a19.87,19.87,0,0,1,6.18-.58c2,.25,4,.67,6,1.09s4,.87,5.94,1.34l11.84,2.81c2,.47,4,.92,5.93,1.32A45.28,45.28,0,0,0,252.19,447Z" style="fill:#ebebeb"></path></g></svg>
